<?xml version="1.0" encoding="UTF-8" standalone="no"?>
<!DOCTYPE svg PUBLIC "-//W3C//DTD SVG 1.1//EN"
 "http://www.w3.org/Graphics/SVG/1.1/DTD/svg11.dtd">
<!-- Generated by graphviz version 2.42.3 (20191010.1750)
 -->
<!-- Title: snakemake_dag Pages: 1 -->
<svg width="115pt" height="764pt"
 viewBox="0.00 0.00 115.00 764.00" xmlns="http://www.w3.org/2000/svg" xmlns:xlink="http://www.w3.org/1999/xlink">
<g id="graph0" class="graph" transform="scale(1 1) rotate(0) translate(4 760)">
<title>snakemake_dag</title>
<polygon fill="white" stroke="transparent" points="-4,4 -4,-760 111,-760 111,4 -4,4"/>
<!-- 0 -->
<g id="node1" class="node">
<title>0</title>
<path fill="none" stroke="#d87556" stroke-width="2" d="M95,-36C95,-36 12,-36 12,-36 6,-36 0,-30 0,-24 0,-24 0,-12 0,-12 0,-6 6,0 12,0 12,0 95,0 95,0 101,0 107,-6 107,-12 107,-12 107,-24 107,-24 107,-30 101,-36 95,-36"/>
<text text-anchor="middle" x="53.5" y="-15.5" font-family="sans" font-size="10.00">gbp_variantcalling</text>
</g>
<!-- 1 -->
<g id="node2" class="node">
<title>1</title>
<path fill="none" stroke="#d85656" stroke-width="2" d="M79,-108C79,-108 28,-108 28,-108 22,-108 16,-102 16,-96 16,-96 16,-84 16,-84 16,-78 22,-72 28,-72 28,-72 79,-72 79,-72 85,-72 91,-78 91,-84 91,-84 91,-96 91,-96 91,-102 85,-108 79,-108"/>
<text text-anchor="middle" x="53.5" y="-87.5" font-family="sans" font-size="10.00">concate_vcf</text>
</g>
<!-- 1&#45;&gt;0 -->
<g id="edge1" class="edge">
<title>1&#45;&gt;0</title>
<path fill="none" stroke="grey" stroke-width="2" d="M53.5,-71.7C53.5,-63.98 53.5,-54.71 53.5,-46.11"/>
<polygon fill="grey" stroke="grey" stroke-width="2" points="57,-46.1 53.5,-36.1 50,-46.1 57,-46.1"/>
</g>
<!-- 2 -->
<g id="node3" class="node">
<title>2</title>
<path fill="none" stroke="#56d8a9" stroke-width="2" d="M83.5,-180C83.5,-180 23.5,-180 23.5,-180 17.5,-180 11.5,-174 11.5,-168 11.5,-168 11.5,-156 11.5,-156 11.5,-150 17.5,-144 23.5,-144 23.5,-144 83.5,-144 83.5,-144 89.5,-144 95.5,-150 95.5,-156 95.5,-156 95.5,-168 95.5,-168 95.5,-174 89.5,-180 83.5,-180"/>
<text text-anchor="middle" x="53.5" y="-159.5" font-family="sans" font-size="10.00">filter_variants</text>
</g>
<!-- 2&#45;&gt;1 -->
<g id="edge2" class="edge">
<title>2&#45;&gt;1</title>
<path fill="none" stroke="grey" stroke-width="2" d="M53.5,-143.7C53.5,-135.98 53.5,-126.71 53.5,-118.11"/>
<polygon fill="grey" stroke="grey" stroke-width="2" points="57,-118.1 53.5,-108.1 50,-118.1 57,-118.1"/>
</g>
<!-- 3 -->
<g id="node4" class="node">
<title>3</title>
<path fill="none" stroke="#68d856" stroke-width="2" d="M87.5,-252C87.5,-252 19.5,-252 19.5,-252 13.5,-252 7.5,-246 7.5,-240 7.5,-240 7.5,-228 7.5,-228 7.5,-222 13.5,-216 19.5,-216 19.5,-216 87.5,-216 87.5,-216 93.5,-216 99.5,-222 99.5,-228 99.5,-228 99.5,-240 99.5,-240 99.5,-246 93.5,-252 87.5,-252"/>
<text text-anchor="middle" x="53.5" y="-231.5" font-family="sans" font-size="10.00">CombineGVCFs</text>
</g>
<!-- 3&#45;&gt;2 -->
<g id="edge3" class="edge">
<title>3&#45;&gt;2</title>
<path fill="none" stroke="grey" stroke-width="2" d="M53.5,-215.7C53.5,-207.98 53.5,-198.71 53.5,-190.11"/>
<polygon fill="grey" stroke="grey" stroke-width="2" points="57,-190.1 53.5,-180.1 50,-190.1 57,-190.1"/>
</g>
<!-- 4 -->
<g id="node5" class="node">
<title>4</title>
<path fill="none" stroke="#56d8d0" stroke-width="2" d="M95,-324C95,-324 12,-324 12,-324 6,-324 0,-318 0,-312 0,-312 0,-300 0,-300 0,-294 6,-288 12,-288 12,-288 95,-288 95,-288 101,-288 107,-294 107,-300 107,-300 107,-312 107,-312 107,-318 101,-324 95,-324"/>
<text text-anchor="middle" x="53.5" y="-303.5" font-family="sans" font-size="10.00">GenomicDBImport</text>
</g>
<!-- 4&#45;&gt;3 -->
<g id="edge4" class="edge">
<title>4&#45;&gt;3</title>
<path fill="none" stroke="grey" stroke-width="2" d="M53.5,-287.7C53.5,-279.98 53.5,-270.71 53.5,-262.11"/>
<polygon fill="grey" stroke="grey" stroke-width="2" points="57,-262.1 53.5,-252.1 50,-262.1 57,-262.1"/>
</g>
<!-- 5 -->
<g id="node6" class="node">
<title>5</title>
<path fill="none" stroke="#56d86b" stroke-width="2" d="M89,-396C89,-396 18,-396 18,-396 12,-396 6,-390 6,-384 6,-384 6,-372 6,-372 6,-366 12,-360 18,-360 18,-360 89,-360 89,-360 95,-360 101,-366 101,-372 101,-372 101,-384 101,-384 101,-390 95,-396 89,-396"/>
<text text-anchor="middle" x="53.5" y="-375.5" font-family="sans" font-size="10.00">HaplotypeCaller</text>
</g>
<!-- 5&#45;&gt;4 -->
<g id="edge5" class="edge">
<title>5&#45;&gt;4</title>
<path fill="none" stroke="grey" stroke-width="2" d="M53.5,-359.7C53.5,-351.98 53.5,-342.71 53.5,-334.11"/>
<polygon fill="grey" stroke="grey" stroke-width="2" points="57,-334.1 53.5,-324.1 50,-334.1 57,-334.1"/>
</g>
<!-- 6 -->
<g id="node7" class="node">
<title>6</title>
<path fill="none" stroke="#afd856" stroke-width="2" d="M87.5,-468C87.5,-468 19.5,-468 19.5,-468 13.5,-468 7.5,-462 7.5,-456 7.5,-456 7.5,-444 7.5,-444 7.5,-438 13.5,-432 19.5,-432 19.5,-432 87.5,-432 87.5,-432 93.5,-432 99.5,-438 99.5,-444 99.5,-444 99.5,-456 99.5,-456 99.5,-462 93.5,-468 87.5,-468"/>
<text text-anchor="middle" x="53.5" y="-447.5" font-family="sans" font-size="10.00">MarkDuplicates</text>
</g>
<!-- 6&#45;&gt;5 -->
<g id="edge6" class="edge">
<title>6&#45;&gt;5</title>
<path fill="none" stroke="grey" stroke-width="2" d="M53.5,-431.7C53.5,-423.98 53.5,-414.71 53.5,-406.11"/>
<polygon fill="grey" stroke="grey" stroke-width="2" points="57,-406.1 53.5,-396.1 50,-406.1 57,-406.1"/>
</g>
<!-- 7 -->
<g id="node8" class="node">
<title>7</title>
<path fill="none" stroke="#88d856" stroke-width="2" d="M86.5,-540C86.5,-540 20.5,-540 20.5,-540 14.5,-540 8.5,-534 8.5,-528 8.5,-528 8.5,-516 8.5,-516 8.5,-510 14.5,-504 20.5,-504 20.5,-504 86.5,-504 86.5,-504 92.5,-504 98.5,-510 98.5,-516 98.5,-516 98.5,-528 98.5,-528 98.5,-534 92.5,-540 86.5,-540"/>
<text text-anchor="middle" x="53.5" y="-519.5" font-family="sans" font-size="10.00">samtools_view</text>
</g>
<!-- 7&#45;&gt;6 -->
<g id="edge7" class="edge">
<title>7&#45;&gt;6</title>
<path fill="none" stroke="grey" stroke-width="2" d="M53.5,-503.7C53.5,-495.98 53.5,-486.71 53.5,-478.11"/>
<polygon fill="grey" stroke="grey" stroke-width="2" points="57,-478.1 53.5,-468.1 50,-478.1 57,-478.1"/>
</g>
<!-- 8 -->
<g id="node9" class="node">
<title>8</title>
<path fill="none" stroke="#d89c56" stroke-width="2" d="M88,-612C88,-612 19,-612 19,-612 13,-612 7,-606 7,-600 7,-600 7,-588 7,-588 7,-582 13,-576 19,-576 19,-576 88,-576 88,-576 94,-576 100,-582 100,-588 100,-588 100,-600 100,-600 100,-606 94,-612 88,-612"/>
<text text-anchor="middle" x="53.5" y="-591.5" font-family="sans" font-size="10.00">picard_SortSam</text>
</g>
<!-- 8&#45;&gt;7 -->
<g id="edge8" class="edge">
<title>8&#45;&gt;7</title>
<path fill="none" stroke="grey" stroke-width="2" d="M53.5,-575.7C53.5,-567.98 53.5,-558.71 53.5,-550.11"/>
<polygon fill="grey" stroke="grey" stroke-width="2" points="57,-550.1 53.5,-540.1 50,-550.1 57,-550.1"/>
</g>
<!-- 9 -->
<g id="node10" class="node">
<title>9</title>
<path fill="none" stroke="#ced856" stroke-width="2" d="M75.5,-684C75.5,-684 31.5,-684 31.5,-684 25.5,-684 19.5,-678 19.5,-672 19.5,-672 19.5,-660 19.5,-660 19.5,-654 25.5,-648 31.5,-648 31.5,-648 75.5,-648 75.5,-648 81.5,-648 87.5,-654 87.5,-660 87.5,-660 87.5,-672 87.5,-672 87.5,-678 81.5,-684 75.5,-684"/>
<text text-anchor="middle" x="53.5" y="-663.5" font-family="sans" font-size="10.00">bwa_mem</text>
</g>
<!-- 9&#45;&gt;8 -->
<g id="edge9" class="edge">
<title>9&#45;&gt;8</title>
<path fill="none" stroke="grey" stroke-width="2" d="M53.5,-647.7C53.5,-639.98 53.5,-630.71 53.5,-622.11"/>
<polygon fill="grey" stroke="grey" stroke-width="2" points="57,-622.1 53.5,-612.1 50,-622.1 57,-622.1"/>
</g>
<!-- 10 -->
<g id="node11" class="node">
<title>10</title>
<path fill="none" stroke="#567bd8" stroke-width="2" d="M72.5,-756C72.5,-756 34.5,-756 34.5,-756 28.5,-756 22.5,-750 22.5,-744 22.5,-744 22.5,-732 22.5,-732 22.5,-726 28.5,-720 34.5,-720 34.5,-720 72.5,-720 72.5,-720 78.5,-720 84.5,-726 84.5,-732 84.5,-732 84.5,-744 84.5,-744 84.5,-750 78.5,-756 72.5,-756"/>
<text text-anchor="middle" x="53.5" y="-735.5" font-family="sans" font-size="10.00">index_ref</text>
</g>
<!-- 10&#45;&gt;9 -->
<g id="edge10" class="edge">
<title>10&#45;&gt;9</title>
<path fill="none" stroke="grey" stroke-width="2" d="M53.5,-719.7C53.5,-711.98 53.5,-702.71 53.5,-694.11"/>
<polygon fill="grey" stroke="grey" stroke-width="2" points="57,-694.1 53.5,-684.1 50,-694.1 57,-694.1"/>
</g>
</g>
</svg>
