<?xml version="1.0" encoding="UTF-8" standalone="no"?>
<!DOCTYPE svg PUBLIC "-//W3C//DTD SVG 1.1//EN"
 "http://www.w3.org/Graphics/SVG/1.1/DTD/svg11.dtd">
<!-- Generated by graphviz version 2.42.3 (20191010.1750)
 -->
<!-- Title: snakemake_dag Pages: 1 -->
<svg width="1431pt" height="769pt"
 viewBox="0.00 0.00 1431.00 769.00" xmlns="http://www.w3.org/2000/svg" xmlns:xlink="http://www.w3.org/1999/xlink">
<g id="graph0" class="graph" transform="scale(1 1) rotate(0) translate(4 765)">
<title>snakemake_dag</title>
<polygon fill="white" stroke="transparent" points="-4,4 -4,-765 1427,-765 1427,4 -4,4"/>
<!-- 0 -->
<g id="node1" class="node">
<title>0</title>
<path fill="none" stroke="#d87d56" stroke-width="2" d="M753,-36C753,-36 670,-36 670,-36 664,-36 658,-30 658,-24 658,-24 658,-12 658,-12 658,-6 664,0 670,0 670,0 753,0 753,0 759,0 765,-6 765,-12 765,-12 765,-24 765,-24 765,-30 759,-36 753,-36"/>
<text text-anchor="middle" x="711.5" y="-15.5" font-family="sans" font-size="10.00">gbp_variantcalling</text>
</g>
<!-- 1 -->
<g id="node2" class="node">
<title>1</title>
<path fill="none" stroke="#d85656" stroke-width="2" d="M856.5,-113C856.5,-113 566.5,-113 566.5,-113 560.5,-113 554.5,-107 554.5,-101 554.5,-101 554.5,-84 554.5,-84 554.5,-78 560.5,-72 566.5,-72 566.5,-72 856.5,-72 856.5,-72 862.5,-72 868.5,-78 868.5,-84 868.5,-84 868.5,-101 868.5,-101 868.5,-107 862.5,-113 856.5,-113"/>
<text text-anchor="middle" x="711.5" y="-101" font-family="sans" font-size="10.00">concate_vcf</text>
<text text-anchor="middle" x="711.5" y="-90" font-family="sans" font-size="10.00">filtered: _VariantFiltration_SelectVariants_vcftools_singletons</text>
<text text-anchor="middle" x="711.5" y="-79" font-family="sans" font-size="10.00">final_dir: filtered_vcf_by_chrom</text>
</g>
<!-- 1&#45;&gt;0 -->
<g id="edge1" class="edge">
<title>1&#45;&gt;0</title>
<path fill="none" stroke="grey" stroke-width="2" d="M711.5,-71.69C711.5,-63.91 711.5,-54.84 711.5,-46.45"/>
<polygon fill="grey" stroke="grey" stroke-width="2" points="715,-46.32 711.5,-36.32 708,-46.32 715,-46.32"/>
</g>
<!-- 2 -->
<g id="node3" class="node">
<title>2</title>
<path fill="none" stroke="#56a2d8" stroke-width="2" d="M115.5,-185C115.5,-185 55.5,-185 55.5,-185 49.5,-185 43.5,-179 43.5,-173 43.5,-173 43.5,-161 43.5,-161 43.5,-155 49.5,-149 55.5,-149 55.5,-149 115.5,-149 115.5,-149 121.5,-149 127.5,-155 127.5,-161 127.5,-161 127.5,-173 127.5,-173 127.5,-179 121.5,-185 115.5,-185"/>
<text text-anchor="middle" x="85.5" y="-164.5" font-family="sans" font-size="10.00">filter_variants</text>
</g>
<!-- 2&#45;&gt;1 -->
<g id="edge2" class="edge">
<title>2&#45;&gt;1</title>
<path fill="none" stroke="grey" stroke-width="2" d="M127.59,-153.96C135.17,-152.09 143.04,-150.34 150.5,-149 281.77,-125.49 432.24,-111.28 544.28,-103.14"/>
<polygon fill="grey" stroke="grey" stroke-width="2" points="544.59,-106.62 554.31,-102.42 544.09,-99.64 544.59,-106.62"/>
</g>
<!-- 3 -->
<g id="node4" class="node">
<title>3</title>
<path fill="none" stroke="#56a2d8" stroke-width="2" d="M231.5,-185C231.5,-185 171.5,-185 171.5,-185 165.5,-185 159.5,-179 159.5,-173 159.5,-173 159.5,-161 159.5,-161 159.5,-155 165.5,-149 171.5,-149 171.5,-149 231.5,-149 231.5,-149 237.5,-149 243.5,-155 243.5,-161 243.5,-161 243.5,-173 243.5,-173 243.5,-179 237.5,-185 231.5,-185"/>
<text text-anchor="middle" x="201.5" y="-164.5" font-family="sans" font-size="10.00">filter_variants</text>
</g>
<!-- 3&#45;&gt;1 -->
<g id="edge3" class="edge">
<title>3&#45;&gt;1</title>
<path fill="none" stroke="grey" stroke-width="2" d="M243.73,-156.36C255.88,-153.77 269.18,-151.1 281.5,-149 367.78,-134.29 464.39,-121.49 544.15,-111.91"/>
<polygon fill="grey" stroke="grey" stroke-width="2" points="544.78,-115.36 554.29,-110.69 543.95,-108.41 544.78,-115.36"/>
</g>
<!-- 4 -->
<g id="node5" class="node">
<title>4</title>
<path fill="none" stroke="#56a2d8" stroke-width="2" d="M362.5,-185C362.5,-185 302.5,-185 302.5,-185 296.5,-185 290.5,-179 290.5,-173 290.5,-173 290.5,-161 290.5,-161 290.5,-155 296.5,-149 302.5,-149 302.5,-149 362.5,-149 362.5,-149 368.5,-149 374.5,-155 374.5,-161 374.5,-161 374.5,-173 374.5,-173 374.5,-179 368.5,-185 362.5,-185"/>
<text text-anchor="middle" x="332.5" y="-164.5" font-family="sans" font-size="10.00">filter_variants</text>
</g>
<!-- 4&#45;&gt;1 -->
<g id="edge4" class="edge">
<title>4&#45;&gt;1</title>
<path fill="none" stroke="grey" stroke-width="2" d="M374.81,-156.8C386.96,-154.21 400.25,-151.44 412.5,-149 471.61,-137.24 537.45,-124.93 592.27,-114.9"/>
<polygon fill="grey" stroke="grey" stroke-width="2" points="593.16,-118.3 602.37,-113.06 591.9,-111.41 593.16,-118.3"/>
</g>
<!-- 5 -->
<g id="node6" class="node">
<title>5</title>
<path fill="none" stroke="#56a2d8" stroke-width="2" d="M493.5,-185C493.5,-185 433.5,-185 433.5,-185 427.5,-185 421.5,-179 421.5,-173 421.5,-173 421.5,-161 421.5,-161 421.5,-155 427.5,-149 433.5,-149 433.5,-149 493.5,-149 493.5,-149 499.5,-149 505.5,-155 505.5,-161 505.5,-161 505.5,-173 505.5,-173 505.5,-179 499.5,-185 493.5,-185"/>
<text text-anchor="middle" x="463.5" y="-164.5" font-family="sans" font-size="10.00">filter_variants</text>
</g>
<!-- 5&#45;&gt;1 -->
<g id="edge5" class="edge">
<title>5&#45;&gt;1</title>
<path fill="none" stroke="grey" stroke-width="2" d="M505.57,-153.7C540.83,-143.39 592.08,-128.41 634.63,-115.97"/>
<polygon fill="grey" stroke="grey" stroke-width="2" points="635.79,-119.28 644.41,-113.11 633.83,-112.56 635.79,-119.28"/>
</g>
<!-- 6 -->
<g id="node7" class="node">
<title>6</title>
<path fill="none" stroke="#56a2d8" stroke-width="2" d="M624.5,-185C624.5,-185 564.5,-185 564.5,-185 558.5,-185 552.5,-179 552.5,-173 552.5,-173 552.5,-161 552.5,-161 552.5,-155 558.5,-149 564.5,-149 564.5,-149 624.5,-149 624.5,-149 630.5,-149 636.5,-155 636.5,-161 636.5,-161 636.5,-173 636.5,-173 636.5,-179 630.5,-185 624.5,-185"/>
<text text-anchor="middle" x="594.5" y="-164.5" font-family="sans" font-size="10.00">filter_variants</text>
</g>
<!-- 6&#45;&gt;1 -->
<g id="edge6" class="edge">
<title>6&#45;&gt;1</title>
<path fill="none" stroke="grey" stroke-width="2" d="M622.23,-148.82C636.82,-139.77 654.99,-128.52 671.12,-118.52"/>
<polygon fill="grey" stroke="grey" stroke-width="2" points="673.18,-121.36 679.84,-113.12 669.49,-115.41 673.18,-121.36"/>
</g>
<!-- 7 -->
<g id="node8" class="node">
<title>7</title>
<path fill="none" stroke="#56a2d8" stroke-width="2" d="M741.5,-185C741.5,-185 681.5,-185 681.5,-185 675.5,-185 669.5,-179 669.5,-173 669.5,-173 669.5,-161 669.5,-161 669.5,-155 675.5,-149 681.5,-149 681.5,-149 741.5,-149 741.5,-149 747.5,-149 753.5,-155 753.5,-161 753.5,-161 753.5,-173 753.5,-173 753.5,-179 747.5,-185 741.5,-185"/>
<text text-anchor="middle" x="711.5" y="-164.5" font-family="sans" font-size="10.00">filter_variants</text>
</g>
<!-- 7&#45;&gt;1 -->
<g id="edge7" class="edge">
<title>7&#45;&gt;1</title>
<path fill="none" stroke="grey" stroke-width="2" d="M711.5,-148.82C711.5,-141.2 711.5,-132 711.5,-123.32"/>
<polygon fill="grey" stroke="grey" stroke-width="2" points="715,-123.12 711.5,-113.12 708,-123.12 715,-123.12"/>
</g>
<!-- 8 -->
<g id="node9" class="node">
<title>8</title>
<path fill="none" stroke="#56a2d8" stroke-width="2" d="M857.5,-185C857.5,-185 797.5,-185 797.5,-185 791.5,-185 785.5,-179 785.5,-173 785.5,-173 785.5,-161 785.5,-161 785.5,-155 791.5,-149 797.5,-149 797.5,-149 857.5,-149 857.5,-149 863.5,-149 869.5,-155 869.5,-161 869.5,-161 869.5,-173 869.5,-173 869.5,-179 863.5,-185 857.5,-185"/>
<text text-anchor="middle" x="827.5" y="-164.5" font-family="sans" font-size="10.00">filter_variants</text>
</g>
<!-- 8&#45;&gt;1 -->
<g id="edge8" class="edge">
<title>8&#45;&gt;1</title>
<path fill="none" stroke="grey" stroke-width="2" d="M800.01,-148.82C785.54,-139.77 767.52,-128.52 751.53,-118.52"/>
<polygon fill="grey" stroke="grey" stroke-width="2" points="753.23,-115.45 742.89,-113.12 749.52,-121.39 753.23,-115.45"/>
</g>
<!-- 9 -->
<g id="node10" class="node">
<title>9</title>
<path fill="none" stroke="#56a2d8" stroke-width="2" d="M981.5,-185C981.5,-185 921.5,-185 921.5,-185 915.5,-185 909.5,-179 909.5,-173 909.5,-173 909.5,-161 909.5,-161 909.5,-155 915.5,-149 921.5,-149 921.5,-149 981.5,-149 981.5,-149 987.5,-149 993.5,-155 993.5,-161 993.5,-161 993.5,-173 993.5,-173 993.5,-179 987.5,-185 981.5,-185"/>
<text text-anchor="middle" x="951.5" y="-164.5" font-family="sans" font-size="10.00">filter_variants</text>
</g>
<!-- 9&#45;&gt;1 -->
<g id="edge9" class="edge">
<title>9&#45;&gt;1</title>
<path fill="none" stroke="grey" stroke-width="2" d="M909.42,-153.29C875.32,-142.99 826.43,-128.22 785.77,-115.94"/>
<polygon fill="grey" stroke="grey" stroke-width="2" points="786.75,-112.57 776.16,-113.03 784.72,-119.28 786.75,-112.57"/>
</g>
<!-- 10 -->
<g id="node11" class="node">
<title>10</title>
<path fill="none" stroke="#56a2d8" stroke-width="2" d="M1108.5,-185C1108.5,-185 1048.5,-185 1048.5,-185 1042.5,-185 1036.5,-179 1036.5,-173 1036.5,-173 1036.5,-161 1036.5,-161 1036.5,-155 1042.5,-149 1048.5,-149 1048.5,-149 1108.5,-149 1108.5,-149 1114.5,-149 1120.5,-155 1120.5,-161 1120.5,-161 1120.5,-173 1120.5,-173 1120.5,-179 1114.5,-185 1108.5,-185"/>
<text text-anchor="middle" x="1078.5" y="-164.5" font-family="sans" font-size="10.00">filter_variants</text>
</g>
<!-- 10&#45;&gt;1 -->
<g id="edge10" class="edge">
<title>10&#45;&gt;1</title>
<path fill="none" stroke="grey" stroke-width="2" d="M1036.34,-156.32C1025.34,-153.86 1013.49,-151.28 1002.5,-149 945.37,-137.17 881.73,-124.92 828.57,-114.95"/>
<polygon fill="grey" stroke="grey" stroke-width="2" points="828.9,-111.46 818.43,-113.06 827.61,-118.34 828.9,-111.46"/>
</g>
<!-- 11 -->
<g id="node12" class="node">
<title>11</title>
<path fill="none" stroke="#56a2d8" stroke-width="2" d="M1237.5,-185C1237.5,-185 1177.5,-185 1177.5,-185 1171.5,-185 1165.5,-179 1165.5,-173 1165.5,-173 1165.5,-161 1165.5,-161 1165.5,-155 1171.5,-149 1177.5,-149 1177.5,-149 1237.5,-149 1237.5,-149 1243.5,-149 1249.5,-155 1249.5,-161 1249.5,-161 1249.5,-173 1249.5,-173 1249.5,-179 1243.5,-185 1237.5,-185"/>
<text text-anchor="middle" x="1207.5" y="-164.5" font-family="sans" font-size="10.00">filter_variants</text>
</g>
<!-- 11&#45;&gt;1 -->
<g id="edge11" class="edge">
<title>11&#45;&gt;1</title>
<path fill="none" stroke="grey" stroke-width="2" d="M1165.12,-156.1C1153.6,-153.59 1141.1,-151.03 1129.5,-149 1047.38,-134.62 955.6,-122.05 879,-112.53"/>
<polygon fill="grey" stroke="grey" stroke-width="2" points="879.13,-109.02 868.78,-111.27 878.27,-115.97 879.13,-109.02"/>
</g>
<!-- 12 -->
<g id="node13" class="node">
<title>12</title>
<path fill="none" stroke="#56a2d8" stroke-width="2" d="M1367.5,-185C1367.5,-185 1307.5,-185 1307.5,-185 1301.5,-185 1295.5,-179 1295.5,-173 1295.5,-173 1295.5,-161 1295.5,-161 1295.5,-155 1301.5,-149 1307.5,-149 1307.5,-149 1367.5,-149 1367.5,-149 1373.5,-149 1379.5,-155 1379.5,-161 1379.5,-161 1379.5,-173 1379.5,-173 1379.5,-179 1373.5,-185 1367.5,-185"/>
<text text-anchor="middle" x="1337.5" y="-164.5" font-family="sans" font-size="10.00">filter_variants</text>
</g>
<!-- 12&#45;&gt;1 -->
<g id="edge12" class="edge">
<title>12&#45;&gt;1</title>
<path fill="none" stroke="grey" stroke-width="2" d="M1295.43,-156.04C1283.54,-153.48 1270.56,-150.9 1258.5,-149 1131.75,-129 987.29,-114.7 878.66,-105.63"/>
<polygon fill="grey" stroke="grey" stroke-width="2" points="878.85,-102.13 868.6,-104.79 878.27,-109.11 878.85,-102.13"/>
</g>
<!-- 13 -->
<g id="node14" class="node">
<title>13</title>
<path fill="none" stroke="#78d856" stroke-width="2" d="M101,-257C101,-257 12,-257 12,-257 6,-257 0,-251 0,-245 0,-245 0,-233 0,-233 0,-227 6,-221 12,-221 12,-221 101,-221 101,-221 107,-221 113,-227 113,-233 113,-233 113,-245 113,-245 113,-251 107,-257 101,-257"/>
<text text-anchor="middle" x="56.5" y="-242" font-family="sans" font-size="10.00">GenotypeGVCFs</text>
<text text-anchor="middle" x="56.5" y="-231" font-family="sans" font-size="10.00">chrom: CC1.8.Chr01</text>
</g>
<!-- 13&#45;&gt;2 -->
<g id="edge13" class="edge">
<title>13&#45;&gt;2</title>
<path fill="none" stroke="grey" stroke-width="2" d="M63.67,-220.7C66.93,-212.81 70.87,-203.3 74.5,-194.55"/>
<polygon fill="grey" stroke="grey" stroke-width="2" points="77.82,-195.68 78.41,-185.1 71.35,-193 77.82,-195.68"/>
</g>
<!-- 14 -->
<g id="node15" class="node">
<title>14</title>
<path fill="none" stroke="#78d856" stroke-width="2" d="M232,-257C232,-257 143,-257 143,-257 137,-257 131,-251 131,-245 131,-245 131,-233 131,-233 131,-227 137,-221 143,-221 143,-221 232,-221 232,-221 238,-221 244,-227 244,-233 244,-233 244,-245 244,-245 244,-251 238,-257 232,-257"/>
<text text-anchor="middle" x="187.5" y="-242" font-family="sans" font-size="10.00">GenotypeGVCFs</text>
<text text-anchor="middle" x="187.5" y="-231" font-family="sans" font-size="10.00">chrom: CC1.8.Chr02</text>
</g>
<!-- 14&#45;&gt;3 -->
<g id="edge14" class="edge">
<title>14&#45;&gt;3</title>
<path fill="none" stroke="grey" stroke-width="2" d="M190.96,-220.7C192.5,-212.98 194.36,-203.71 196.08,-195.11"/>
<polygon fill="grey" stroke="grey" stroke-width="2" points="199.55,-195.6 198.08,-185.1 192.69,-194.22 199.55,-195.6"/>
</g>
<!-- 15 -->
<g id="node16" class="node">
<title>15</title>
<path fill="none" stroke="#78d856" stroke-width="2" d="M363,-257C363,-257 274,-257 274,-257 268,-257 262,-251 262,-245 262,-245 262,-233 262,-233 262,-227 268,-221 274,-221 274,-221 363,-221 363,-221 369,-221 375,-227 375,-233 375,-233 375,-245 375,-245 375,-251 369,-257 363,-257"/>
<text text-anchor="middle" x="318.5" y="-242" font-family="sans" font-size="10.00">GenotypeGVCFs</text>
<text text-anchor="middle" x="318.5" y="-231" font-family="sans" font-size="10.00">chrom: CC1.8.Chr03</text>
</g>
<!-- 15&#45;&gt;4 -->
<g id="edge15" class="edge">
<title>15&#45;&gt;4</title>
<path fill="none" stroke="grey" stroke-width="2" d="M321.96,-220.7C323.5,-212.98 325.36,-203.71 327.08,-195.11"/>
<polygon fill="grey" stroke="grey" stroke-width="2" points="330.55,-195.6 329.08,-185.1 323.69,-194.22 330.55,-195.6"/>
</g>
<!-- 16 -->
<g id="node17" class="node">
<title>16</title>
<path fill="none" stroke="#78d856" stroke-width="2" d="M494,-257C494,-257 405,-257 405,-257 399,-257 393,-251 393,-245 393,-245 393,-233 393,-233 393,-227 399,-221 405,-221 405,-221 494,-221 494,-221 500,-221 506,-227 506,-233 506,-233 506,-245 506,-245 506,-251 500,-257 494,-257"/>
<text text-anchor="middle" x="449.5" y="-242" font-family="sans" font-size="10.00">GenotypeGVCFs</text>
<text text-anchor="middle" x="449.5" y="-231" font-family="sans" font-size="10.00">chrom: CC1.8.Chr04</text>
</g>
<!-- 16&#45;&gt;5 -->
<g id="edge16" class="edge">
<title>16&#45;&gt;5</title>
<path fill="none" stroke="grey" stroke-width="2" d="M452.96,-220.7C454.5,-212.98 456.36,-203.71 458.08,-195.11"/>
<polygon fill="grey" stroke="grey" stroke-width="2" points="461.55,-195.6 460.08,-185.1 454.69,-194.22 461.55,-195.6"/>
</g>
<!-- 17 -->
<g id="node18" class="node">
<title>17</title>
<path fill="none" stroke="#78d856" stroke-width="2" d="M625,-257C625,-257 536,-257 536,-257 530,-257 524,-251 524,-245 524,-245 524,-233 524,-233 524,-227 530,-221 536,-221 536,-221 625,-221 625,-221 631,-221 637,-227 637,-233 637,-233 637,-245 637,-245 637,-251 631,-257 625,-257"/>
<text text-anchor="middle" x="580.5" y="-242" font-family="sans" font-size="10.00">GenotypeGVCFs</text>
<text text-anchor="middle" x="580.5" y="-231" font-family="sans" font-size="10.00">chrom: CC1.8.Chr05</text>
</g>
<!-- 17&#45;&gt;6 -->
<g id="edge17" class="edge">
<title>17&#45;&gt;6</title>
<path fill="none" stroke="grey" stroke-width="2" d="M583.96,-220.7C585.5,-212.98 587.36,-203.71 589.08,-195.11"/>
<polygon fill="grey" stroke="grey" stroke-width="2" points="592.55,-195.6 591.08,-185.1 585.69,-194.22 592.55,-195.6"/>
</g>
<!-- 18 -->
<g id="node19" class="node">
<title>18</title>
<path fill="none" stroke="#78d856" stroke-width="2" d="M756,-257C756,-257 667,-257 667,-257 661,-257 655,-251 655,-245 655,-245 655,-233 655,-233 655,-227 661,-221 667,-221 667,-221 756,-221 756,-221 762,-221 768,-227 768,-233 768,-233 768,-245 768,-245 768,-251 762,-257 756,-257"/>
<text text-anchor="middle" x="711.5" y="-242" font-family="sans" font-size="10.00">GenotypeGVCFs</text>
<text text-anchor="middle" x="711.5" y="-231" font-family="sans" font-size="10.00">chrom: CC1.8.Chr06</text>
</g>
<!-- 18&#45;&gt;7 -->
<g id="edge18" class="edge">
<title>18&#45;&gt;7</title>
<path fill="none" stroke="grey" stroke-width="2" d="M711.5,-220.7C711.5,-212.98 711.5,-203.71 711.5,-195.11"/>
<polygon fill="grey" stroke="grey" stroke-width="2" points="715,-195.1 711.5,-185.1 708,-195.1 715,-195.1"/>
</g>
<!-- 19 -->
<g id="node20" class="node">
<title>19</title>
<path fill="none" stroke="#78d856" stroke-width="2" d="M887,-257C887,-257 798,-257 798,-257 792,-257 786,-251 786,-245 786,-245 786,-233 786,-233 786,-227 792,-221 798,-221 798,-221 887,-221 887,-221 893,-221 899,-227 899,-233 899,-233 899,-245 899,-245 899,-251 893,-257 887,-257"/>
<text text-anchor="middle" x="842.5" y="-242" font-family="sans" font-size="10.00">GenotypeGVCFs</text>
<text text-anchor="middle" x="842.5" y="-231" font-family="sans" font-size="10.00">chrom: CC1.8.Chr07</text>
</g>
<!-- 19&#45;&gt;8 -->
<g id="edge19" class="edge">
<title>19&#45;&gt;8</title>
<path fill="none" stroke="grey" stroke-width="2" d="M838.79,-220.7C837.14,-212.98 835.15,-203.71 833.31,-195.11"/>
<polygon fill="grey" stroke="grey" stroke-width="2" points="836.68,-194.15 831.17,-185.1 829.84,-195.62 836.68,-194.15"/>
</g>
<!-- 20 -->
<g id="node21" class="node">
<title>20</title>
<path fill="none" stroke="#78d856" stroke-width="2" d="M1018,-257C1018,-257 929,-257 929,-257 923,-257 917,-251 917,-245 917,-245 917,-233 917,-233 917,-227 923,-221 929,-221 929,-221 1018,-221 1018,-221 1024,-221 1030,-227 1030,-233 1030,-233 1030,-245 1030,-245 1030,-251 1024,-257 1018,-257"/>
<text text-anchor="middle" x="973.5" y="-242" font-family="sans" font-size="10.00">GenotypeGVCFs</text>
<text text-anchor="middle" x="973.5" y="-231" font-family="sans" font-size="10.00">chrom: CC1.8.Chr08</text>
</g>
<!-- 20&#45;&gt;9 -->
<g id="edge20" class="edge">
<title>20&#45;&gt;9</title>
<path fill="none" stroke="grey" stroke-width="2" d="M968.06,-220.7C965.61,-212.9 962.66,-203.51 959.93,-194.83"/>
<polygon fill="grey" stroke="grey" stroke-width="2" points="963.21,-193.59 956.88,-185.1 956.54,-195.69 963.21,-193.59"/>
</g>
<!-- 21 -->
<g id="node22" class="node">
<title>21</title>
<path fill="none" stroke="#78d856" stroke-width="2" d="M1149,-257C1149,-257 1060,-257 1060,-257 1054,-257 1048,-251 1048,-245 1048,-245 1048,-233 1048,-233 1048,-227 1054,-221 1060,-221 1060,-221 1149,-221 1149,-221 1155,-221 1161,-227 1161,-233 1161,-233 1161,-245 1161,-245 1161,-251 1155,-257 1149,-257"/>
<text text-anchor="middle" x="1104.5" y="-242" font-family="sans" font-size="10.00">GenotypeGVCFs</text>
<text text-anchor="middle" x="1104.5" y="-231" font-family="sans" font-size="10.00">chrom: CC1.8.Chr09</text>
</g>
<!-- 21&#45;&gt;10 -->
<g id="edge21" class="edge">
<title>21&#45;&gt;10</title>
<path fill="none" stroke="grey" stroke-width="2" d="M1098.07,-220.7C1095.14,-212.81 1091.61,-203.3 1088.36,-194.55"/>
<polygon fill="grey" stroke="grey" stroke-width="2" points="1091.62,-193.26 1084.85,-185.1 1085.05,-195.7 1091.62,-193.26"/>
</g>
<!-- 22 -->
<g id="node23" class="node">
<title>22</title>
<path fill="none" stroke="#78d856" stroke-width="2" d="M1280,-257C1280,-257 1191,-257 1191,-257 1185,-257 1179,-251 1179,-245 1179,-245 1179,-233 1179,-233 1179,-227 1185,-221 1191,-221 1191,-221 1280,-221 1280,-221 1286,-221 1292,-227 1292,-233 1292,-233 1292,-245 1292,-245 1292,-251 1286,-257 1280,-257"/>
<text text-anchor="middle" x="1235.5" y="-242" font-family="sans" font-size="10.00">GenotypeGVCFs</text>
<text text-anchor="middle" x="1235.5" y="-231" font-family="sans" font-size="10.00">chrom: CC1.8.Chr10</text>
</g>
<!-- 22&#45;&gt;11 -->
<g id="edge22" class="edge">
<title>22&#45;&gt;11</title>
<path fill="none" stroke="grey" stroke-width="2" d="M1228.58,-220.7C1225.43,-212.81 1221.62,-203.3 1218.12,-194.55"/>
<polygon fill="grey" stroke="grey" stroke-width="2" points="1221.31,-193.09 1214.34,-185.1 1214.81,-195.69 1221.31,-193.09"/>
</g>
<!-- 23 -->
<g id="node24" class="node">
<title>23</title>
<path fill="none" stroke="#78d856" stroke-width="2" d="M1411,-257C1411,-257 1322,-257 1322,-257 1316,-257 1310,-251 1310,-245 1310,-245 1310,-233 1310,-233 1310,-227 1316,-221 1322,-221 1322,-221 1411,-221 1411,-221 1417,-221 1423,-227 1423,-233 1423,-233 1423,-245 1423,-245 1423,-251 1417,-257 1411,-257"/>
<text text-anchor="middle" x="1366.5" y="-242" font-family="sans" font-size="10.00">GenotypeGVCFs</text>
<text text-anchor="middle" x="1366.5" y="-231" font-family="sans" font-size="10.00">chrom: CC1.8.Chr11</text>
</g>
<!-- 23&#45;&gt;12 -->
<g id="edge23" class="edge">
<title>23&#45;&gt;12</title>
<path fill="none" stroke="grey" stroke-width="2" d="M1359.33,-220.7C1356.07,-212.81 1352.13,-203.3 1348.5,-194.55"/>
<polygon fill="grey" stroke="grey" stroke-width="2" points="1351.65,-193 1344.59,-185.1 1345.18,-195.68 1351.65,-193"/>
</g>
<!-- 24 -->
<g id="node25" class="node">
<title>24</title>
<path fill="none" stroke="#59d856" stroke-width="2" d="M745.5,-329C745.5,-329 677.5,-329 677.5,-329 671.5,-329 665.5,-323 665.5,-317 665.5,-317 665.5,-305 665.5,-305 665.5,-299 671.5,-293 677.5,-293 677.5,-293 745.5,-293 745.5,-293 751.5,-293 757.5,-299 757.5,-305 757.5,-305 757.5,-317 757.5,-317 757.5,-323 751.5,-329 745.5,-329"/>
<text text-anchor="middle" x="711.5" y="-308.5" font-family="sans" font-size="10.00">CombineGVCFs</text>
</g>
<!-- 24&#45;&gt;13 -->
<g id="edge24" class="edge">
<title>24&#45;&gt;13</title>
<path fill="none" stroke="grey" stroke-width="2" d="M665.26,-308.46C566.95,-304.62 329.9,-292.39 123.23,-257.14"/>
<polygon fill="grey" stroke="grey" stroke-width="2" points="123.55,-253.65 113.1,-255.39 122.36,-260.55 123.55,-253.65"/>
</g>
<!-- 24&#45;&gt;14 -->
<g id="edge25" class="edge">
<title>24&#45;&gt;14</title>
<path fill="none" stroke="grey" stroke-width="2" d="M665.25,-306.83C583.89,-300.77 409.79,-285.72 254.33,-257.21"/>
<polygon fill="grey" stroke="grey" stroke-width="2" points="254.59,-253.69 244.11,-255.31 253.31,-260.58 254.59,-253.69"/>
</g>
<!-- 24&#45;&gt;15 -->
<g id="edge26" class="edge">
<title>24&#45;&gt;15</title>
<path fill="none" stroke="grey" stroke-width="2" d="M665.34,-303.96C603.55,-295.56 490.37,-279.09 384.99,-257.22"/>
<polygon fill="grey" stroke="grey" stroke-width="2" points="385.65,-253.78 375.14,-255.16 384.21,-260.63 385.65,-253.78"/>
</g>
<!-- 24&#45;&gt;16 -->
<g id="edge27" class="edge">
<title>24&#45;&gt;16</title>
<path fill="none" stroke="grey" stroke-width="2" d="M665.26,-297.65C623.84,-286.58 562.61,-270.22 515.95,-257.75"/>
<polygon fill="grey" stroke="grey" stroke-width="2" points="516.79,-254.36 506.23,-255.16 514.98,-261.12 516.79,-254.36"/>
</g>
<!-- 24&#45;&gt;17 -->
<g id="edge28" class="edge">
<title>24&#45;&gt;17</title>
<path fill="none" stroke="grey" stroke-width="2" d="M679.45,-292.88C662.01,-283.55 640.23,-271.92 621.56,-261.94"/>
<polygon fill="grey" stroke="grey" stroke-width="2" points="623.14,-258.82 612.67,-257.19 619.84,-264.99 623.14,-258.82"/>
</g>
<!-- 24&#45;&gt;18 -->
<g id="edge29" class="edge">
<title>24&#45;&gt;18</title>
<path fill="none" stroke="grey" stroke-width="2" d="M711.5,-292.7C711.5,-284.98 711.5,-275.71 711.5,-267.11"/>
<polygon fill="grey" stroke="grey" stroke-width="2" points="715,-267.1 711.5,-257.1 708,-267.1 715,-267.1"/>
</g>
<!-- 24&#45;&gt;19 -->
<g id="edge30" class="edge">
<title>24&#45;&gt;19</title>
<path fill="none" stroke="grey" stroke-width="2" d="M743.55,-292.88C760.99,-283.55 782.77,-271.92 801.44,-261.94"/>
<polygon fill="grey" stroke="grey" stroke-width="2" points="803.16,-264.99 810.33,-257.19 799.86,-258.82 803.16,-264.99"/>
</g>
<!-- 24&#45;&gt;20 -->
<g id="edge31" class="edge">
<title>24&#45;&gt;20</title>
<path fill="none" stroke="grey" stroke-width="2" d="M757.74,-297.65C799.16,-286.58 860.39,-270.22 907.05,-257.75"/>
<polygon fill="grey" stroke="grey" stroke-width="2" points="908.02,-261.12 916.77,-255.16 906.21,-254.36 908.02,-261.12"/>
</g>
<!-- 24&#45;&gt;21 -->
<g id="edge32" class="edge">
<title>24&#45;&gt;21</title>
<path fill="none" stroke="grey" stroke-width="2" d="M757.66,-303.96C819.45,-295.56 932.63,-279.09 1038.01,-257.22"/>
<polygon fill="grey" stroke="grey" stroke-width="2" points="1038.79,-260.63 1047.86,-255.16 1037.35,-253.78 1038.79,-260.63"/>
</g>
<!-- 24&#45;&gt;22 -->
<g id="edge33" class="edge">
<title>24&#45;&gt;22</title>
<path fill="none" stroke="grey" stroke-width="2" d="M757.75,-306.83C839.11,-300.77 1013.21,-285.72 1168.67,-257.21"/>
<polygon fill="grey" stroke="grey" stroke-width="2" points="1169.69,-260.58 1178.89,-255.31 1168.41,-253.69 1169.69,-260.58"/>
</g>
<!-- 24&#45;&gt;23 -->
<g id="edge34" class="edge">
<title>24&#45;&gt;23</title>
<path fill="none" stroke="grey" stroke-width="2" d="M757.74,-308.46C856.05,-304.62 1093.1,-292.39 1299.77,-257.14"/>
<polygon fill="grey" stroke="grey" stroke-width="2" points="1300.64,-260.55 1309.9,-255.39 1299.45,-253.65 1300.64,-260.55"/>
</g>
<!-- 25 -->
<g id="node26" class="node">
<title>25</title>
<path fill="none" stroke="#567bd8" stroke-width="2" d="M691,-401C691,-401 620,-401 620,-401 614,-401 608,-395 608,-389 608,-389 608,-377 608,-377 608,-371 614,-365 620,-365 620,-365 691,-365 691,-365 697,-365 703,-371 703,-377 703,-377 703,-389 703,-389 703,-395 697,-401 691,-401"/>
<text text-anchor="middle" x="655.5" y="-380.5" font-family="sans" font-size="10.00">HaplotypeCaller</text>
</g>
<!-- 25&#45;&gt;24 -->
<g id="edge35" class="edge">
<title>25&#45;&gt;24</title>
<path fill="none" stroke="grey" stroke-width="2" d="M669.34,-364.7C675.99,-356.39 684.08,-346.28 691.39,-337.14"/>
<polygon fill="grey" stroke="grey" stroke-width="2" points="694.3,-339.1 697.82,-329.1 688.84,-334.73 694.3,-339.1"/>
</g>
<!-- 26 -->
<g id="node27" class="node">
<title>26</title>
<path fill="none" stroke="#567bd8" stroke-width="2" stroke-dasharray="5,2" d="M804,-401C804,-401 733,-401 733,-401 727,-401 721,-395 721,-389 721,-389 721,-377 721,-377 721,-371 727,-365 733,-365 733,-365 804,-365 804,-365 810,-365 816,-371 816,-377 816,-377 816,-389 816,-389 816,-395 810,-401 804,-401"/>
<text text-anchor="middle" x="768.5" y="-380.5" font-family="sans" font-size="10.00">HaplotypeCaller</text>
</g>
<!-- 26&#45;&gt;24 -->
<g id="edge36" class="edge">
<title>26&#45;&gt;24</title>
<path fill="none" stroke="grey" stroke-width="2" d="M754.41,-364.7C747.58,-356.3 739.24,-346.07 731.74,-336.86"/>
<polygon fill="grey" stroke="grey" stroke-width="2" points="734.46,-334.65 725.43,-329.1 729.03,-339.07 734.46,-334.65"/>
</g>
<!-- 27 -->
<g id="node28" class="node">
<title>27</title>
<path fill="none" stroke="#c6d856" stroke-width="2" d="M686.5,-473C686.5,-473 618.5,-473 618.5,-473 612.5,-473 606.5,-467 606.5,-461 606.5,-461 606.5,-449 606.5,-449 606.5,-443 612.5,-437 618.5,-437 618.5,-437 686.5,-437 686.5,-437 692.5,-437 698.5,-443 698.5,-449 698.5,-449 698.5,-461 698.5,-461 698.5,-467 692.5,-473 686.5,-473"/>
<text text-anchor="middle" x="652.5" y="-452.5" font-family="sans" font-size="10.00">MarkDuplicates</text>
</g>
<!-- 27&#45;&gt;25 -->
<g id="edge37" class="edge">
<title>27&#45;&gt;25</title>
<path fill="none" stroke="grey" stroke-width="2" d="M653.24,-436.7C653.57,-428.98 653.97,-419.71 654.34,-411.11"/>
<polygon fill="grey" stroke="grey" stroke-width="2" points="657.84,-411.25 654.77,-401.1 650.84,-410.95 657.84,-411.25"/>
</g>
<!-- 28 -->
<g id="node29" class="node">
<title>28</title>
<path fill="none" stroke="#c6d856" stroke-width="2" stroke-dasharray="5,2" d="M802.5,-473C802.5,-473 734.5,-473 734.5,-473 728.5,-473 722.5,-467 722.5,-461 722.5,-461 722.5,-449 722.5,-449 722.5,-443 728.5,-437 734.5,-437 734.5,-437 802.5,-437 802.5,-437 808.5,-437 814.5,-443 814.5,-449 814.5,-449 814.5,-461 814.5,-461 814.5,-467 808.5,-473 802.5,-473"/>
<text text-anchor="middle" x="768.5" y="-452.5" font-family="sans" font-size="10.00">MarkDuplicates</text>
</g>
<!-- 28&#45;&gt;26 -->
<g id="edge38" class="edge">
<title>28&#45;&gt;26</title>
<path fill="none" stroke="grey" stroke-width="2" d="M768.5,-436.7C768.5,-428.98 768.5,-419.71 768.5,-411.11"/>
<polygon fill="grey" stroke="grey" stroke-width="2" points="772,-411.1 768.5,-401.1 765,-411.1 772,-411.1"/>
</g>
<!-- 29 -->
<g id="node30" class="node">
<title>29</title>
<path fill="none" stroke="#56d8a2" stroke-width="2" d="M684.5,-545C684.5,-545 618.5,-545 618.5,-545 612.5,-545 606.5,-539 606.5,-533 606.5,-533 606.5,-521 606.5,-521 606.5,-515 612.5,-509 618.5,-509 618.5,-509 684.5,-509 684.5,-509 690.5,-509 696.5,-515 696.5,-521 696.5,-521 696.5,-533 696.5,-533 696.5,-539 690.5,-545 684.5,-545"/>
<text text-anchor="middle" x="651.5" y="-524.5" font-family="sans" font-size="10.00">samtools_view</text>
</g>
<!-- 29&#45;&gt;27 -->
<g id="edge39" class="edge">
<title>29&#45;&gt;27</title>
<path fill="none" stroke="grey" stroke-width="2" d="M651.75,-508.7C651.86,-500.98 651.99,-491.71 652.11,-483.11"/>
<polygon fill="grey" stroke="grey" stroke-width="2" points="655.61,-483.15 652.26,-473.1 648.61,-483.05 655.61,-483.15"/>
</g>
<!-- 30 -->
<g id="node31" class="node">
<title>30</title>
<path fill="none" stroke="#56d8a2" stroke-width="2" stroke-dasharray="5,2" d="M801.5,-545C801.5,-545 735.5,-545 735.5,-545 729.5,-545 723.5,-539 723.5,-533 723.5,-533 723.5,-521 723.5,-521 723.5,-515 729.5,-509 735.5,-509 735.5,-509 801.5,-509 801.5,-509 807.5,-509 813.5,-515 813.5,-521 813.5,-521 813.5,-533 813.5,-533 813.5,-539 807.5,-545 801.5,-545"/>
<text text-anchor="middle" x="768.5" y="-524.5" font-family="sans" font-size="10.00">samtools_view</text>
</g>
<!-- 30&#45;&gt;28 -->
<g id="edge40" class="edge">
<title>30&#45;&gt;28</title>
<path fill="none" stroke="grey" stroke-width="2" d="M768.5,-508.7C768.5,-500.98 768.5,-491.71 768.5,-483.11"/>
<polygon fill="grey" stroke="grey" stroke-width="2" points="772,-483.1 768.5,-473.1 765,-483.1 772,-483.1"/>
</g>
<!-- 31 -->
<g id="node32" class="node">
<title>31</title>
<path fill="none" stroke="#9fd856" stroke-width="2" d="M685,-617C685,-617 616,-617 616,-617 610,-617 604,-611 604,-605 604,-605 604,-593 604,-593 604,-587 610,-581 616,-581 616,-581 685,-581 685,-581 691,-581 697,-587 697,-593 697,-593 697,-605 697,-605 697,-611 691,-617 685,-617"/>
<text text-anchor="middle" x="650.5" y="-596.5" font-family="sans" font-size="10.00">picard_SortSam</text>
</g>
<!-- 31&#45;&gt;29 -->
<g id="edge41" class="edge">
<title>31&#45;&gt;29</title>
<path fill="none" stroke="grey" stroke-width="2" d="M650.75,-580.7C650.86,-572.98 650.99,-563.71 651.11,-555.11"/>
<polygon fill="grey" stroke="grey" stroke-width="2" points="654.61,-555.15 651.26,-545.1 647.61,-555.05 654.61,-555.15"/>
</g>
<!-- 32 -->
<g id="node33" class="node">
<title>32</title>
<path fill="none" stroke="#9fd856" stroke-width="2" stroke-dasharray="5,2" d="M803,-617C803,-617 734,-617 734,-617 728,-617 722,-611 722,-605 722,-605 722,-593 722,-593 722,-587 728,-581 734,-581 734,-581 803,-581 803,-581 809,-581 815,-587 815,-593 815,-593 815,-605 815,-605 815,-611 809,-617 803,-617"/>
<text text-anchor="middle" x="768.5" y="-596.5" font-family="sans" font-size="10.00">picard_SortSam</text>
</g>
<!-- 32&#45;&gt;30 -->
<g id="edge42" class="edge">
<title>32&#45;&gt;30</title>
<path fill="none" stroke="grey" stroke-width="2" d="M768.5,-580.7C768.5,-572.98 768.5,-563.71 768.5,-555.11"/>
<polygon fill="grey" stroke="grey" stroke-width="2" points="772,-555.1 768.5,-545.1 765,-555.1 772,-555.1"/>
</g>
<!-- 33 -->
<g id="node34" class="node">
<title>33</title>
<path fill="none" stroke="#56d8c9" stroke-width="2" d="M689,-689C689,-689 612,-689 612,-689 606,-689 600,-683 600,-677 600,-677 600,-665 600,-665 600,-659 606,-653 612,-653 612,-653 689,-653 689,-653 695,-653 701,-659 701,-665 701,-665 701,-677 701,-677 701,-683 695,-689 689,-689"/>
<text text-anchor="middle" x="650.5" y="-674" font-family="sans" font-size="10.00">bwa_mem</text>
<text text-anchor="middle" x="650.5" y="-663" font-family="sans" font-size="10.00">sample: sample1</text>
</g>
<!-- 33&#45;&gt;31 -->
<g id="edge43" class="edge">
<title>33&#45;&gt;31</title>
<path fill="none" stroke="grey" stroke-width="2" d="M650.5,-652.7C650.5,-644.98 650.5,-635.71 650.5,-627.11"/>
<polygon fill="grey" stroke="grey" stroke-width="2" points="654,-627.1 650.5,-617.1 647,-627.1 654,-627.1"/>
</g>
<!-- 34 -->
<g id="node35" class="node">
<title>34</title>
<path fill="none" stroke="#56d8c9" stroke-width="2" stroke-dasharray="5,2" d="M808,-689C808,-689 731,-689 731,-689 725,-689 719,-683 719,-677 719,-677 719,-665 719,-665 719,-659 725,-653 731,-653 731,-653 808,-653 808,-653 814,-653 820,-659 820,-665 820,-665 820,-677 820,-677 820,-683 814,-689 808,-689"/>
<text text-anchor="middle" x="769.5" y="-674" font-family="sans" font-size="10.00">bwa_mem</text>
<text text-anchor="middle" x="769.5" y="-663" font-family="sans" font-size="10.00">sample: sample2</text>
</g>
<!-- 34&#45;&gt;32 -->
<g id="edge44" class="edge">
<title>34&#45;&gt;32</title>
<path fill="none" stroke="grey" stroke-width="2" d="M769.25,-652.7C769.14,-644.98 769.01,-635.71 768.89,-627.11"/>
<polygon fill="grey" stroke="grey" stroke-width="2" points="772.39,-627.05 768.74,-617.1 765.39,-627.15 772.39,-627.05"/>
</g>
<!-- 35 -->
<g id="node36" class="node">
<title>35</title>
<path fill="none" stroke="#56d87b" stroke-width="2" stroke-dasharray="5,2" d="M728.5,-761C728.5,-761 690.5,-761 690.5,-761 684.5,-761 678.5,-755 678.5,-749 678.5,-749 678.5,-737 678.5,-737 678.5,-731 684.5,-725 690.5,-725 690.5,-725 728.5,-725 728.5,-725 734.5,-725 740.5,-731 740.5,-737 740.5,-737 740.5,-749 740.5,-749 740.5,-755 734.5,-761 728.5,-761"/>
<text text-anchor="middle" x="709.5" y="-740.5" font-family="sans" font-size="10.00">index_ref</text>
</g>
<!-- 35&#45;&gt;33 -->
<g id="edge45" class="edge">
<title>35&#45;&gt;33</title>
<path fill="none" stroke="grey" stroke-width="2" d="M694.92,-724.7C687.84,-716.3 679.22,-706.07 671.45,-696.86"/>
<polygon fill="grey" stroke="grey" stroke-width="2" points="674.04,-694.49 664.92,-689.1 668.69,-699.01 674.04,-694.49"/>
</g>
<!-- 35&#45;&gt;34 -->
<g id="edge46" class="edge">
<title>35&#45;&gt;34</title>
<path fill="none" stroke="grey" stroke-width="2" d="M724.33,-724.7C731.52,-716.3 740.3,-706.07 748.19,-696.86"/>
<polygon fill="grey" stroke="grey" stroke-width="2" points="750.99,-698.97 754.84,-689.1 745.67,-694.42 750.99,-698.97"/>
</g>
</g>
</svg>
