<?xml version="1.0" encoding="UTF-8" standalone="no"?>
<!DOCTYPE svg PUBLIC "-//W3C//DTD SVG 1.1//EN"
 "http://www.w3.org/Graphics/SVG/1.1/DTD/svg11.dtd">
<!-- Generated by graphviz version 2.42.3 (20191010.1750)
 -->
<!-- Title: snakemake_dag Pages: 1 -->
<svg width="1431pt" height="697pt"
 viewBox="0.00 0.00 1431.00 697.00" xmlns="http://www.w3.org/2000/svg" xmlns:xlink="http://www.w3.org/1999/xlink">
<g id="graph0" class="graph" transform="scale(1 1) rotate(0) translate(4 693)">
<title>snakemake_dag</title>
<polygon fill="white" stroke="transparent" points="-4,4 -4,-693 1427,-693 1427,4 -4,4"/>
<!-- 0 -->
<g id="node1" class="node">
<title>0</title>
<path fill="none" stroke="#567bd8" stroke-width="2" d="M753,-36C753,-36 670,-36 670,-36 664,-36 658,-30 658,-24 658,-24 658,-12 658,-12 658,-6 664,0 670,0 670,0 753,0 753,0 759,0 765,-6 765,-12 765,-12 765,-24 765,-24 765,-30 759,-36 753,-36"/>
<text text-anchor="middle" x="711.5" y="-15.5" font-family="sans" font-size="10.00">gbp_variantcalling</text>
</g>
<!-- 1 -->
<g id="node2" class="node">
<title>1</title>
<path fill="none" stroke="#56d8a2" stroke-width="2" d="M829,-113C829,-113 594,-113 594,-113 588,-113 582,-107 582,-101 582,-101 582,-84 582,-84 582,-78 588,-72 594,-72 594,-72 829,-72 829,-72 835,-72 841,-78 841,-84 841,-84 841,-101 841,-101 841,-107 835,-113 829,-113"/>
<text text-anchor="middle" x="711.5" y="-101" font-family="sans" font-size="10.00">concate_vcf</text>
<text text-anchor="middle" x="711.5" y="-90" font-family="sans" font-size="10.00">filtered: _VariantFiltration_SelectVariants_vcftools</text>
<text text-anchor="middle" x="711.5" y="-79" font-family="sans" font-size="10.00">final_dir: filtered_vcf_by_chrom</text>
</g>
<!-- 1&#45;&gt;0 -->
<g id="edge1" class="edge">
<title>1&#45;&gt;0</title>
<path fill="none" stroke="grey" stroke-width="2" d="M711.5,-71.69C711.5,-63.91 711.5,-54.84 711.5,-46.45"/>
<polygon fill="grey" stroke="grey" stroke-width="2" points="715,-46.32 711.5,-36.32 708,-46.32 715,-46.32"/>
</g>
<!-- 2 -->
<g id="node3" class="node">
<title>2</title>
<path fill="none" stroke="#56d8c9" stroke-width="2" d="M130.5,-185C130.5,-185 70.5,-185 70.5,-185 64.5,-185 58.5,-179 58.5,-173 58.5,-173 58.5,-161 58.5,-161 58.5,-155 64.5,-149 70.5,-149 70.5,-149 130.5,-149 130.5,-149 136.5,-149 142.5,-155 142.5,-161 142.5,-161 142.5,-173 142.5,-173 142.5,-179 136.5,-185 130.5,-185"/>
<text text-anchor="middle" x="100.5" y="-164.5" font-family="sans" font-size="10.00">filter_variants</text>
</g>
<!-- 2&#45;&gt;1 -->
<g id="edge2" class="edge">
<title>2&#45;&gt;1</title>
<path fill="none" stroke="grey" stroke-width="2" d="M142.62,-152.05C146.94,-150.9 151.29,-149.85 155.5,-149 295.56,-120.66 458.52,-106.56 571.66,-99.69"/>
<polygon fill="grey" stroke="grey" stroke-width="2" points="571.99,-103.18 581.77,-99.09 571.58,-96.19 571.99,-103.18"/>
</g>
<!-- 3 -->
<g id="node4" class="node">
<title>3</title>
<path fill="none" stroke="#56d8c9" stroke-width="2" d="M236.5,-185C236.5,-185 176.5,-185 176.5,-185 170.5,-185 164.5,-179 164.5,-173 164.5,-173 164.5,-161 164.5,-161 164.5,-155 170.5,-149 176.5,-149 176.5,-149 236.5,-149 236.5,-149 242.5,-149 248.5,-155 248.5,-161 248.5,-161 248.5,-173 248.5,-173 248.5,-179 242.5,-185 236.5,-185"/>
<text text-anchor="middle" x="206.5" y="-164.5" font-family="sans" font-size="10.00">filter_variants</text>
</g>
<!-- 3&#45;&gt;1 -->
<g id="edge3" class="edge">
<title>3&#45;&gt;1</title>
<path fill="none" stroke="grey" stroke-width="2" d="M248.73,-156.37C260.88,-153.78 274.18,-151.11 286.5,-149 381.29,-132.77 488.7,-118.78 571.82,-108.9"/>
<polygon fill="grey" stroke="grey" stroke-width="2" points="572.31,-112.37 581.83,-107.72 571.49,-105.42 572.31,-112.37"/>
</g>
<!-- 4 -->
<g id="node5" class="node">
<title>4</title>
<path fill="none" stroke="#56d8c9" stroke-width="2" d="M367.5,-185C367.5,-185 307.5,-185 307.5,-185 301.5,-185 295.5,-179 295.5,-173 295.5,-173 295.5,-161 295.5,-161 295.5,-155 301.5,-149 307.5,-149 307.5,-149 367.5,-149 367.5,-149 373.5,-149 379.5,-155 379.5,-161 379.5,-161 379.5,-173 379.5,-173 379.5,-179 373.5,-185 367.5,-185"/>
<text text-anchor="middle" x="337.5" y="-164.5" font-family="sans" font-size="10.00">filter_variants</text>
</g>
<!-- 4&#45;&gt;1 -->
<g id="edge4" class="edge">
<title>4&#45;&gt;1</title>
<path fill="none" stroke="grey" stroke-width="2" d="M379.81,-156.82C391.97,-154.23 405.25,-151.46 417.5,-149 475.87,-137.29 540.91,-124.94 594.94,-114.87"/>
<polygon fill="grey" stroke="grey" stroke-width="2" points="595.71,-118.29 604.9,-113.02 594.43,-111.41 595.71,-118.29"/>
</g>
<!-- 5 -->
<g id="node6" class="node">
<title>5</title>
<path fill="none" stroke="#56d8c9" stroke-width="2" d="M498.5,-185C498.5,-185 438.5,-185 438.5,-185 432.5,-185 426.5,-179 426.5,-173 426.5,-173 426.5,-161 426.5,-161 426.5,-155 432.5,-149 438.5,-149 438.5,-149 498.5,-149 498.5,-149 504.5,-149 510.5,-155 510.5,-161 510.5,-161 510.5,-173 510.5,-173 510.5,-179 504.5,-185 498.5,-185"/>
<text text-anchor="middle" x="468.5" y="-164.5" font-family="sans" font-size="10.00">filter_variants</text>
</g>
<!-- 5&#45;&gt;1 -->
<g id="edge5" class="edge">
<title>5&#45;&gt;1</title>
<path fill="none" stroke="grey" stroke-width="2" d="M510.55,-153.45C545.01,-143.17 594.65,-128.36 635.97,-116.04"/>
<polygon fill="grey" stroke="grey" stroke-width="2" points="637.15,-119.34 645.73,-113.12 635.15,-112.63 637.15,-119.34"/>
</g>
<!-- 6 -->
<g id="node7" class="node">
<title>6</title>
<path fill="none" stroke="#56d8c9" stroke-width="2" d="M629.5,-185C629.5,-185 569.5,-185 569.5,-185 563.5,-185 557.5,-179 557.5,-173 557.5,-173 557.5,-161 557.5,-161 557.5,-155 563.5,-149 569.5,-149 569.5,-149 629.5,-149 629.5,-149 635.5,-149 641.5,-155 641.5,-161 641.5,-161 641.5,-173 641.5,-173 641.5,-179 635.5,-185 629.5,-185"/>
<text text-anchor="middle" x="599.5" y="-164.5" font-family="sans" font-size="10.00">filter_variants</text>
</g>
<!-- 6&#45;&gt;1 -->
<g id="edge6" class="edge">
<title>6&#45;&gt;1</title>
<path fill="none" stroke="grey" stroke-width="2" d="M626.04,-148.82C639.89,-139.86 657.09,-128.72 672.42,-118.8"/>
<polygon fill="grey" stroke="grey" stroke-width="2" points="674.7,-121.49 681.19,-113.12 670.89,-115.62 674.7,-121.49"/>
</g>
<!-- 7 -->
<g id="node8" class="node">
<title>7</title>
<path fill="none" stroke="#56d8c9" stroke-width="2" d="M741.5,-185C741.5,-185 681.5,-185 681.5,-185 675.5,-185 669.5,-179 669.5,-173 669.5,-173 669.5,-161 669.5,-161 669.5,-155 675.5,-149 681.5,-149 681.5,-149 741.5,-149 741.5,-149 747.5,-149 753.5,-155 753.5,-161 753.5,-161 753.5,-173 753.5,-173 753.5,-179 747.5,-185 741.5,-185"/>
<text text-anchor="middle" x="711.5" y="-164.5" font-family="sans" font-size="10.00">filter_variants</text>
</g>
<!-- 7&#45;&gt;1 -->
<g id="edge7" class="edge">
<title>7&#45;&gt;1</title>
<path fill="none" stroke="grey" stroke-width="2" d="M711.5,-148.82C711.5,-141.2 711.5,-132 711.5,-123.32"/>
<polygon fill="grey" stroke="grey" stroke-width="2" points="715,-123.12 711.5,-113.12 708,-123.12 715,-123.12"/>
</g>
<!-- 8 -->
<g id="node9" class="node">
<title>8</title>
<path fill="none" stroke="#56d8c9" stroke-width="2" d="M847.5,-185C847.5,-185 787.5,-185 787.5,-185 781.5,-185 775.5,-179 775.5,-173 775.5,-173 775.5,-161 775.5,-161 775.5,-155 781.5,-149 787.5,-149 787.5,-149 847.5,-149 847.5,-149 853.5,-149 859.5,-155 859.5,-161 859.5,-161 859.5,-173 859.5,-173 859.5,-179 853.5,-185 847.5,-185"/>
<text text-anchor="middle" x="817.5" y="-164.5" font-family="sans" font-size="10.00">filter_variants</text>
</g>
<!-- 8&#45;&gt;1 -->
<g id="edge8" class="edge">
<title>8&#45;&gt;1</title>
<path fill="none" stroke="grey" stroke-width="2" d="M792.38,-148.82C779.28,-139.86 763,-128.72 748.49,-118.8"/>
<polygon fill="grey" stroke="grey" stroke-width="2" points="750.42,-115.88 740.19,-113.12 746.46,-121.65 750.42,-115.88"/>
</g>
<!-- 9 -->
<g id="node10" class="node">
<title>9</title>
<path fill="none" stroke="#56d8c9" stroke-width="2" d="M955.5,-185C955.5,-185 895.5,-185 895.5,-185 889.5,-185 883.5,-179 883.5,-173 883.5,-173 883.5,-161 883.5,-161 883.5,-155 889.5,-149 895.5,-149 895.5,-149 955.5,-149 955.5,-149 961.5,-149 967.5,-155 967.5,-161 967.5,-161 967.5,-173 967.5,-173 967.5,-179 961.5,-185 955.5,-185"/>
<text text-anchor="middle" x="925.5" y="-164.5" font-family="sans" font-size="10.00">filter_variants</text>
</g>
<!-- 9&#45;&gt;1 -->
<g id="edge9" class="edge">
<title>9&#45;&gt;1</title>
<path fill="none" stroke="grey" stroke-width="2" d="M883.48,-151.76C853.66,-141.66 813,-127.89 778.71,-116.27"/>
<polygon fill="grey" stroke="grey" stroke-width="2" points="779.81,-112.95 769.22,-113.05 777.57,-119.58 779.81,-112.95"/>
</g>
<!-- 10 -->
<g id="node11" class="node">
<title>10</title>
<path fill="none" stroke="#56d8c9" stroke-width="2" d="M1064.5,-185C1064.5,-185 1004.5,-185 1004.5,-185 998.5,-185 992.5,-179 992.5,-173 992.5,-173 992.5,-161 992.5,-161 992.5,-155 998.5,-149 1004.5,-149 1004.5,-149 1064.5,-149 1064.5,-149 1070.5,-149 1076.5,-155 1076.5,-161 1076.5,-161 1076.5,-173 1076.5,-173 1076.5,-179 1070.5,-185 1064.5,-185"/>
<text text-anchor="middle" x="1034.5" y="-164.5" font-family="sans" font-size="10.00">filter_variants</text>
</g>
<!-- 10&#45;&gt;1 -->
<g id="edge10" class="edge">
<title>10&#45;&gt;1</title>
<path fill="none" stroke="grey" stroke-width="2" d="M992.47,-153.26C987.12,-151.76 981.69,-150.3 976.5,-149 926.81,-136.53 871.39,-124.62 824.13,-115.05"/>
<polygon fill="grey" stroke="grey" stroke-width="2" points="824.67,-111.59 814.18,-113.05 823.29,-118.45 824.67,-111.59"/>
</g>
<!-- 11 -->
<g id="node12" class="node">
<title>11</title>
<path fill="none" stroke="#56d8c9" stroke-width="2" d="M1173.5,-185C1173.5,-185 1113.5,-185 1113.5,-185 1107.5,-185 1101.5,-179 1101.5,-173 1101.5,-173 1101.5,-161 1101.5,-161 1101.5,-155 1107.5,-149 1113.5,-149 1113.5,-149 1173.5,-149 1173.5,-149 1179.5,-149 1185.5,-155 1185.5,-161 1185.5,-161 1185.5,-173 1185.5,-173 1185.5,-179 1179.5,-185 1173.5,-185"/>
<text text-anchor="middle" x="1143.5" y="-164.5" font-family="sans" font-size="10.00">filter_variants</text>
</g>
<!-- 11&#45;&gt;1 -->
<g id="edge11" class="edge">
<title>11&#45;&gt;1</title>
<path fill="none" stroke="grey" stroke-width="2" d="M1101.23,-152.88C1095.96,-151.46 1090.62,-150.13 1085.5,-149 1008.81,-132.15 922.13,-118.93 851.55,-109.63"/>
<polygon fill="grey" stroke="grey" stroke-width="2" points="851.62,-106.11 841.25,-108.28 850.71,-113.05 851.62,-106.11"/>
</g>
<!-- 12 -->
<g id="node13" class="node">
<title>12</title>
<path fill="none" stroke="#56d8c9" stroke-width="2" d="M1283.5,-185C1283.5,-185 1223.5,-185 1223.5,-185 1217.5,-185 1211.5,-179 1211.5,-173 1211.5,-173 1211.5,-161 1211.5,-161 1211.5,-155 1217.5,-149 1223.5,-149 1223.5,-149 1283.5,-149 1283.5,-149 1289.5,-149 1295.5,-155 1295.5,-161 1295.5,-161 1295.5,-173 1295.5,-173 1295.5,-179 1289.5,-185 1283.5,-185"/>
<text text-anchor="middle" x="1253.5" y="-164.5" font-family="sans" font-size="10.00">filter_variants</text>
</g>
<!-- 12&#45;&gt;1 -->
<g id="edge12" class="edge">
<title>12&#45;&gt;1</title>
<path fill="none" stroke="grey" stroke-width="2" d="M1211.49,-152.98C1205.81,-151.49 1200.04,-150.11 1194.5,-149 1079.99,-126.09 948.18,-111.73 851.21,-103.37"/>
<polygon fill="grey" stroke="grey" stroke-width="2" points="851.31,-99.87 841.05,-102.51 850.72,-106.85 851.31,-99.87"/>
</g>
<!-- 13 -->
<g id="node14" class="node">
<title>13</title>
<path fill="none" stroke="#d8c356" stroke-width="2" d="M111.5,-257C111.5,-257 43.5,-257 43.5,-257 37.5,-257 31.5,-251 31.5,-245 31.5,-245 31.5,-233 31.5,-233 31.5,-227 37.5,-221 43.5,-221 43.5,-221 111.5,-221 111.5,-221 117.5,-221 123.5,-227 123.5,-233 123.5,-233 123.5,-245 123.5,-245 123.5,-251 117.5,-257 111.5,-257"/>
<text text-anchor="middle" x="77.5" y="-236.5" font-family="sans" font-size="10.00">CombineGVCFs</text>
</g>
<!-- 13&#45;&gt;2 -->
<g id="edge13" class="edge">
<title>13&#45;&gt;2</title>
<path fill="none" stroke="grey" stroke-width="2" d="M83.19,-220.7C85.75,-212.9 88.83,-203.51 91.68,-194.83"/>
<polygon fill="grey" stroke="grey" stroke-width="2" points="95.08,-195.7 94.88,-185.1 88.43,-193.51 95.08,-195.7"/>
</g>
<!-- 14 -->
<g id="node15" class="node">
<title>14</title>
<path fill="none" stroke="#d8c356" stroke-width="2" d="M231.5,-257C231.5,-257 163.5,-257 163.5,-257 157.5,-257 151.5,-251 151.5,-245 151.5,-245 151.5,-233 151.5,-233 151.5,-227 157.5,-221 163.5,-221 163.5,-221 231.5,-221 231.5,-221 237.5,-221 243.5,-227 243.5,-233 243.5,-233 243.5,-245 243.5,-245 243.5,-251 237.5,-257 231.5,-257"/>
<text text-anchor="middle" x="197.5" y="-236.5" font-family="sans" font-size="10.00">CombineGVCFs</text>
</g>
<!-- 14&#45;&gt;3 -->
<g id="edge14" class="edge">
<title>14&#45;&gt;3</title>
<path fill="none" stroke="grey" stroke-width="2" d="M199.72,-220.7C200.72,-212.98 201.91,-203.71 203.01,-195.11"/>
<polygon fill="grey" stroke="grey" stroke-width="2" points="206.5,-195.47 204.3,-185.1 199.55,-194.58 206.5,-195.47"/>
</g>
<!-- 15 -->
<g id="node16" class="node">
<title>15</title>
<path fill="none" stroke="#d8c356" stroke-width="2" d="M362.5,-257C362.5,-257 294.5,-257 294.5,-257 288.5,-257 282.5,-251 282.5,-245 282.5,-245 282.5,-233 282.5,-233 282.5,-227 288.5,-221 294.5,-221 294.5,-221 362.5,-221 362.5,-221 368.5,-221 374.5,-227 374.5,-233 374.5,-233 374.5,-245 374.5,-245 374.5,-251 368.5,-257 362.5,-257"/>
<text text-anchor="middle" x="328.5" y="-236.5" font-family="sans" font-size="10.00">CombineGVCFs</text>
</g>
<!-- 15&#45;&gt;4 -->
<g id="edge15" class="edge">
<title>15&#45;&gt;4</title>
<path fill="none" stroke="grey" stroke-width="2" d="M330.72,-220.7C331.72,-212.98 332.91,-203.71 334.01,-195.11"/>
<polygon fill="grey" stroke="grey" stroke-width="2" points="337.5,-195.47 335.3,-185.1 330.55,-194.58 337.5,-195.47"/>
</g>
<!-- 16 -->
<g id="node17" class="node">
<title>16</title>
<path fill="none" stroke="#d8c356" stroke-width="2" d="M493.5,-257C493.5,-257 425.5,-257 425.5,-257 419.5,-257 413.5,-251 413.5,-245 413.5,-245 413.5,-233 413.5,-233 413.5,-227 419.5,-221 425.5,-221 425.5,-221 493.5,-221 493.5,-221 499.5,-221 505.5,-227 505.5,-233 505.5,-233 505.5,-245 505.5,-245 505.5,-251 499.5,-257 493.5,-257"/>
<text text-anchor="middle" x="459.5" y="-236.5" font-family="sans" font-size="10.00">CombineGVCFs</text>
</g>
<!-- 16&#45;&gt;5 -->
<g id="edge16" class="edge">
<title>16&#45;&gt;5</title>
<path fill="none" stroke="grey" stroke-width="2" d="M461.72,-220.7C462.72,-212.98 463.91,-203.71 465.01,-195.11"/>
<polygon fill="grey" stroke="grey" stroke-width="2" points="468.5,-195.47 466.3,-185.1 461.55,-194.58 468.5,-195.47"/>
</g>
<!-- 17 -->
<g id="node18" class="node">
<title>17</title>
<path fill="none" stroke="#d8c356" stroke-width="2" d="M624.5,-257C624.5,-257 556.5,-257 556.5,-257 550.5,-257 544.5,-251 544.5,-245 544.5,-245 544.5,-233 544.5,-233 544.5,-227 550.5,-221 556.5,-221 556.5,-221 624.5,-221 624.5,-221 630.5,-221 636.5,-227 636.5,-233 636.5,-233 636.5,-245 636.5,-245 636.5,-251 630.5,-257 624.5,-257"/>
<text text-anchor="middle" x="590.5" y="-236.5" font-family="sans" font-size="10.00">CombineGVCFs</text>
</g>
<!-- 17&#45;&gt;6 -->
<g id="edge17" class="edge">
<title>17&#45;&gt;6</title>
<path fill="none" stroke="grey" stroke-width="2" d="M592.72,-220.7C593.72,-212.98 594.91,-203.71 596.01,-195.11"/>
<polygon fill="grey" stroke="grey" stroke-width="2" points="599.5,-195.47 597.3,-185.1 592.55,-194.58 599.5,-195.47"/>
</g>
<!-- 18 -->
<g id="node19" class="node">
<title>18</title>
<path fill="none" stroke="#d8c356" stroke-width="2" d="M745.5,-257C745.5,-257 677.5,-257 677.5,-257 671.5,-257 665.5,-251 665.5,-245 665.5,-245 665.5,-233 665.5,-233 665.5,-227 671.5,-221 677.5,-221 677.5,-221 745.5,-221 745.5,-221 751.5,-221 757.5,-227 757.5,-233 757.5,-233 757.5,-245 757.5,-245 757.5,-251 751.5,-257 745.5,-257"/>
<text text-anchor="middle" x="711.5" y="-236.5" font-family="sans" font-size="10.00">CombineGVCFs</text>
</g>
<!-- 18&#45;&gt;7 -->
<g id="edge18" class="edge">
<title>18&#45;&gt;7</title>
<path fill="none" stroke="grey" stroke-width="2" d="M711.5,-220.7C711.5,-212.98 711.5,-203.71 711.5,-195.11"/>
<polygon fill="grey" stroke="grey" stroke-width="2" points="715,-195.1 711.5,-185.1 708,-195.1 715,-195.1"/>
</g>
<!-- 19 -->
<g id="node20" class="node">
<title>19</title>
<path fill="none" stroke="#d8c356" stroke-width="2" d="M865.5,-257C865.5,-257 797.5,-257 797.5,-257 791.5,-257 785.5,-251 785.5,-245 785.5,-245 785.5,-233 785.5,-233 785.5,-227 791.5,-221 797.5,-221 797.5,-221 865.5,-221 865.5,-221 871.5,-221 877.5,-227 877.5,-233 877.5,-233 877.5,-245 877.5,-245 877.5,-251 871.5,-257 865.5,-257"/>
<text text-anchor="middle" x="831.5" y="-236.5" font-family="sans" font-size="10.00">CombineGVCFs</text>
</g>
<!-- 19&#45;&gt;8 -->
<g id="edge19" class="edge">
<title>19&#45;&gt;8</title>
<path fill="none" stroke="grey" stroke-width="2" d="M828.04,-220.7C826.5,-212.98 824.64,-203.71 822.92,-195.11"/>
<polygon fill="grey" stroke="grey" stroke-width="2" points="826.31,-194.22 820.92,-185.1 819.45,-195.6 826.31,-194.22"/>
</g>
<!-- 20 -->
<g id="node21" class="node">
<title>20</title>
<path fill="none" stroke="#d8c356" stroke-width="2" d="M991.5,-257C991.5,-257 923.5,-257 923.5,-257 917.5,-257 911.5,-251 911.5,-245 911.5,-245 911.5,-233 911.5,-233 911.5,-227 917.5,-221 923.5,-221 923.5,-221 991.5,-221 991.5,-221 997.5,-221 1003.5,-227 1003.5,-233 1003.5,-233 1003.5,-245 1003.5,-245 1003.5,-251 997.5,-257 991.5,-257"/>
<text text-anchor="middle" x="957.5" y="-236.5" font-family="sans" font-size="10.00">CombineGVCFs</text>
</g>
<!-- 20&#45;&gt;9 -->
<g id="edge20" class="edge">
<title>20&#45;&gt;9</title>
<path fill="none" stroke="grey" stroke-width="2" d="M949.59,-220.7C945.95,-212.73 941.55,-203.1 937.51,-194.26"/>
<polygon fill="grey" stroke="grey" stroke-width="2" points="940.66,-192.74 933.32,-185.1 934.29,-195.65 940.66,-192.74"/>
</g>
<!-- 21 -->
<g id="node22" class="node">
<title>21</title>
<path fill="none" stroke="#d8c356" stroke-width="2" d="M1119.5,-257C1119.5,-257 1051.5,-257 1051.5,-257 1045.5,-257 1039.5,-251 1039.5,-245 1039.5,-245 1039.5,-233 1039.5,-233 1039.5,-227 1045.5,-221 1051.5,-221 1051.5,-221 1119.5,-221 1119.5,-221 1125.5,-221 1131.5,-227 1131.5,-233 1131.5,-233 1131.5,-245 1131.5,-245 1131.5,-251 1125.5,-257 1119.5,-257"/>
<text text-anchor="middle" x="1085.5" y="-236.5" font-family="sans" font-size="10.00">CombineGVCFs</text>
</g>
<!-- 21&#45;&gt;10 -->
<g id="edge21" class="edge">
<title>21&#45;&gt;10</title>
<path fill="none" stroke="grey" stroke-width="2" d="M1072.89,-220.7C1066.9,-212.47 1059.62,-202.48 1053.02,-193.42"/>
<polygon fill="grey" stroke="grey" stroke-width="2" points="1055.68,-191.13 1046.96,-185.1 1050.02,-195.25 1055.68,-191.13"/>
</g>
<!-- 22 -->
<g id="node23" class="node">
<title>22</title>
<path fill="none" stroke="#d8c356" stroke-width="2" d="M1249.5,-257C1249.5,-257 1181.5,-257 1181.5,-257 1175.5,-257 1169.5,-251 1169.5,-245 1169.5,-245 1169.5,-233 1169.5,-233 1169.5,-227 1175.5,-221 1181.5,-221 1181.5,-221 1249.5,-221 1249.5,-221 1255.5,-221 1261.5,-227 1261.5,-233 1261.5,-233 1261.5,-245 1261.5,-245 1261.5,-251 1255.5,-257 1249.5,-257"/>
<text text-anchor="middle" x="1215.5" y="-236.5" font-family="sans" font-size="10.00">CombineGVCFs</text>
</g>
<!-- 22&#45;&gt;11 -->
<g id="edge22" class="edge">
<title>22&#45;&gt;11</title>
<path fill="none" stroke="grey" stroke-width="2" d="M1197.7,-220.7C1188.9,-212.14 1178.12,-201.66 1168.5,-192.3"/>
<polygon fill="grey" stroke="grey" stroke-width="2" points="1170.7,-189.57 1161.09,-185.1 1165.82,-194.58 1170.7,-189.57"/>
</g>
<!-- 23 -->
<g id="node24" class="node">
<title>23</title>
<path fill="none" stroke="#d8c356" stroke-width="2" d="M1379.5,-257C1379.5,-257 1311.5,-257 1311.5,-257 1305.5,-257 1299.5,-251 1299.5,-245 1299.5,-245 1299.5,-233 1299.5,-233 1299.5,-227 1305.5,-221 1311.5,-221 1311.5,-221 1379.5,-221 1379.5,-221 1385.5,-221 1391.5,-227 1391.5,-233 1391.5,-233 1391.5,-245 1391.5,-245 1391.5,-251 1385.5,-257 1379.5,-257"/>
<text text-anchor="middle" x="1345.5" y="-236.5" font-family="sans" font-size="10.00">CombineGVCFs</text>
</g>
<!-- 23&#45;&gt;12 -->
<g id="edge23" class="edge">
<title>23&#45;&gt;12</title>
<path fill="none" stroke="grey" stroke-width="2" d="M1322.76,-220.7C1311.06,-211.8 1296.64,-200.82 1283.99,-191.2"/>
<polygon fill="grey" stroke="grey" stroke-width="2" points="1286.06,-188.37 1275.98,-185.1 1281.82,-193.94 1286.06,-188.37"/>
</g>
<!-- 24 -->
<g id="node25" class="node">
<title>24</title>
<path fill="none" stroke="#56a2d8" stroke-width="2" d="M101,-329C101,-329 12,-329 12,-329 6,-329 0,-323 0,-317 0,-317 0,-305 0,-305 0,-299 6,-293 12,-293 12,-293 101,-293 101,-293 107,-293 113,-299 113,-305 113,-305 113,-317 113,-317 113,-323 107,-329 101,-329"/>
<text text-anchor="middle" x="56.5" y="-314" font-family="sans" font-size="10.00">GenomicDBImport</text>
<text text-anchor="middle" x="56.5" y="-303" font-family="sans" font-size="10.00">chrom: CC1.8.Chr01</text>
</g>
<!-- 24&#45;&gt;13 -->
<g id="edge24" class="edge">
<title>24&#45;&gt;13</title>
<path fill="none" stroke="grey" stroke-width="2" d="M61.69,-292.7C64.03,-284.9 66.85,-275.51 69.45,-266.83"/>
<polygon fill="grey" stroke="grey" stroke-width="2" points="72.85,-267.69 72.37,-257.1 66.14,-265.68 72.85,-267.69"/>
</g>
<!-- 25 -->
<g id="node26" class="node">
<title>25</title>
<path fill="none" stroke="#56a2d8" stroke-width="2" d="M232,-329C232,-329 143,-329 143,-329 137,-329 131,-323 131,-317 131,-317 131,-305 131,-305 131,-299 137,-293 143,-293 143,-293 232,-293 232,-293 238,-293 244,-299 244,-305 244,-305 244,-317 244,-317 244,-323 238,-329 232,-329"/>
<text text-anchor="middle" x="187.5" y="-314" font-family="sans" font-size="10.00">GenomicDBImport</text>
<text text-anchor="middle" x="187.5" y="-303" font-family="sans" font-size="10.00">chrom: CC1.8.Chr02</text>
</g>
<!-- 25&#45;&gt;14 -->
<g id="edge25" class="edge">
<title>25&#45;&gt;14</title>
<path fill="none" stroke="grey" stroke-width="2" d="M189.97,-292.7C191.07,-284.98 192.4,-275.71 193.63,-267.11"/>
<polygon fill="grey" stroke="grey" stroke-width="2" points="197.11,-267.5 195.06,-257.1 190.18,-266.51 197.11,-267.5"/>
</g>
<!-- 26 -->
<g id="node27" class="node">
<title>26</title>
<path fill="none" stroke="#56a2d8" stroke-width="2" d="M363,-329C363,-329 274,-329 274,-329 268,-329 262,-323 262,-317 262,-317 262,-305 262,-305 262,-299 268,-293 274,-293 274,-293 363,-293 363,-293 369,-293 375,-299 375,-305 375,-305 375,-317 375,-317 375,-323 369,-329 363,-329"/>
<text text-anchor="middle" x="318.5" y="-314" font-family="sans" font-size="10.00">GenomicDBImport</text>
<text text-anchor="middle" x="318.5" y="-303" font-family="sans" font-size="10.00">chrom: CC1.8.Chr03</text>
</g>
<!-- 26&#45;&gt;15 -->
<g id="edge26" class="edge">
<title>26&#45;&gt;15</title>
<path fill="none" stroke="grey" stroke-width="2" d="M320.97,-292.7C322.07,-284.98 323.4,-275.71 324.63,-267.11"/>
<polygon fill="grey" stroke="grey" stroke-width="2" points="328.11,-267.5 326.06,-257.1 321.18,-266.51 328.11,-267.5"/>
</g>
<!-- 27 -->
<g id="node28" class="node">
<title>27</title>
<path fill="none" stroke="#56a2d8" stroke-width="2" d="M494,-329C494,-329 405,-329 405,-329 399,-329 393,-323 393,-317 393,-317 393,-305 393,-305 393,-299 399,-293 405,-293 405,-293 494,-293 494,-293 500,-293 506,-299 506,-305 506,-305 506,-317 506,-317 506,-323 500,-329 494,-329"/>
<text text-anchor="middle" x="449.5" y="-314" font-family="sans" font-size="10.00">GenomicDBImport</text>
<text text-anchor="middle" x="449.5" y="-303" font-family="sans" font-size="10.00">chrom: CC1.8.Chr04</text>
</g>
<!-- 27&#45;&gt;16 -->
<g id="edge27" class="edge">
<title>27&#45;&gt;16</title>
<path fill="none" stroke="grey" stroke-width="2" d="M451.97,-292.7C453.07,-284.98 454.4,-275.71 455.63,-267.11"/>
<polygon fill="grey" stroke="grey" stroke-width="2" points="459.11,-267.5 457.06,-257.1 452.18,-266.51 459.11,-267.5"/>
</g>
<!-- 28 -->
<g id="node29" class="node">
<title>28</title>
<path fill="none" stroke="#56a2d8" stroke-width="2" d="M625,-329C625,-329 536,-329 536,-329 530,-329 524,-323 524,-317 524,-317 524,-305 524,-305 524,-299 530,-293 536,-293 536,-293 625,-293 625,-293 631,-293 637,-299 637,-305 637,-305 637,-317 637,-317 637,-323 631,-329 625,-329"/>
<text text-anchor="middle" x="580.5" y="-314" font-family="sans" font-size="10.00">GenomicDBImport</text>
<text text-anchor="middle" x="580.5" y="-303" font-family="sans" font-size="10.00">chrom: CC1.8.Chr05</text>
</g>
<!-- 28&#45;&gt;17 -->
<g id="edge28" class="edge">
<title>28&#45;&gt;17</title>
<path fill="none" stroke="grey" stroke-width="2" d="M582.97,-292.7C584.07,-284.98 585.4,-275.71 586.63,-267.11"/>
<polygon fill="grey" stroke="grey" stroke-width="2" points="590.11,-267.5 588.06,-257.1 583.18,-266.51 590.11,-267.5"/>
</g>
<!-- 29 -->
<g id="node30" class="node">
<title>29</title>
<path fill="none" stroke="#56a2d8" stroke-width="2" d="M756,-329C756,-329 667,-329 667,-329 661,-329 655,-323 655,-317 655,-317 655,-305 655,-305 655,-299 661,-293 667,-293 667,-293 756,-293 756,-293 762,-293 768,-299 768,-305 768,-305 768,-317 768,-317 768,-323 762,-329 756,-329"/>
<text text-anchor="middle" x="711.5" y="-314" font-family="sans" font-size="10.00">GenomicDBImport</text>
<text text-anchor="middle" x="711.5" y="-303" font-family="sans" font-size="10.00">chrom: CC1.8.Chr06</text>
</g>
<!-- 29&#45;&gt;18 -->
<g id="edge29" class="edge">
<title>29&#45;&gt;18</title>
<path fill="none" stroke="grey" stroke-width="2" d="M711.5,-292.7C711.5,-284.98 711.5,-275.71 711.5,-267.11"/>
<polygon fill="grey" stroke="grey" stroke-width="2" points="715,-267.1 711.5,-257.1 708,-267.1 715,-267.1"/>
</g>
<!-- 30 -->
<g id="node31" class="node">
<title>30</title>
<path fill="none" stroke="#56a2d8" stroke-width="2" d="M887,-329C887,-329 798,-329 798,-329 792,-329 786,-323 786,-317 786,-317 786,-305 786,-305 786,-299 792,-293 798,-293 798,-293 887,-293 887,-293 893,-293 899,-299 899,-305 899,-305 899,-317 899,-317 899,-323 893,-329 887,-329"/>
<text text-anchor="middle" x="842.5" y="-314" font-family="sans" font-size="10.00">GenomicDBImport</text>
<text text-anchor="middle" x="842.5" y="-303" font-family="sans" font-size="10.00">chrom: CC1.8.Chr07</text>
</g>
<!-- 30&#45;&gt;19 -->
<g id="edge30" class="edge">
<title>30&#45;&gt;19</title>
<path fill="none" stroke="grey" stroke-width="2" d="M839.78,-292.7C838.57,-284.98 837.11,-275.71 835.76,-267.11"/>
<polygon fill="grey" stroke="grey" stroke-width="2" points="839.2,-266.44 834.19,-257.1 832.28,-267.53 839.2,-266.44"/>
</g>
<!-- 31 -->
<g id="node32" class="node">
<title>31</title>
<path fill="none" stroke="#56a2d8" stroke-width="2" d="M1018,-329C1018,-329 929,-329 929,-329 923,-329 917,-323 917,-317 917,-317 917,-305 917,-305 917,-299 923,-293 929,-293 929,-293 1018,-293 1018,-293 1024,-293 1030,-299 1030,-305 1030,-305 1030,-317 1030,-317 1030,-323 1024,-329 1018,-329"/>
<text text-anchor="middle" x="973.5" y="-314" font-family="sans" font-size="10.00">GenomicDBImport</text>
<text text-anchor="middle" x="973.5" y="-303" font-family="sans" font-size="10.00">chrom: CC1.8.Chr08</text>
</g>
<!-- 31&#45;&gt;20 -->
<g id="edge31" class="edge">
<title>31&#45;&gt;20</title>
<path fill="none" stroke="grey" stroke-width="2" d="M969.54,-292.7C967.78,-284.98 965.66,-275.71 963.7,-267.11"/>
<polygon fill="grey" stroke="grey" stroke-width="2" points="967.05,-266.07 961.41,-257.1 960.23,-267.63 967.05,-266.07"/>
</g>
<!-- 32 -->
<g id="node33" class="node">
<title>32</title>
<path fill="none" stroke="#56a2d8" stroke-width="2" d="M1149,-329C1149,-329 1060,-329 1060,-329 1054,-329 1048,-323 1048,-317 1048,-317 1048,-305 1048,-305 1048,-299 1054,-293 1060,-293 1060,-293 1149,-293 1149,-293 1155,-293 1161,-299 1161,-305 1161,-305 1161,-317 1161,-317 1161,-323 1155,-329 1149,-329"/>
<text text-anchor="middle" x="1104.5" y="-314" font-family="sans" font-size="10.00">GenomicDBImport</text>
<text text-anchor="middle" x="1104.5" y="-303" font-family="sans" font-size="10.00">chrom: CC1.8.Chr09</text>
</g>
<!-- 32&#45;&gt;21 -->
<g id="edge32" class="edge">
<title>32&#45;&gt;21</title>
<path fill="none" stroke="grey" stroke-width="2" d="M1099.8,-292.7C1097.69,-284.9 1095.14,-275.51 1092.78,-266.83"/>
<polygon fill="grey" stroke="grey" stroke-width="2" points="1096.14,-265.84 1090.14,-257.1 1089.38,-267.67 1096.14,-265.84"/>
</g>
<!-- 33 -->
<g id="node34" class="node">
<title>33</title>
<path fill="none" stroke="#56a2d8" stroke-width="2" d="M1280,-329C1280,-329 1191,-329 1191,-329 1185,-329 1179,-323 1179,-317 1179,-317 1179,-305 1179,-305 1179,-299 1185,-293 1191,-293 1191,-293 1280,-293 1280,-293 1286,-293 1292,-299 1292,-305 1292,-305 1292,-317 1292,-317 1292,-323 1286,-329 1280,-329"/>
<text text-anchor="middle" x="1235.5" y="-314" font-family="sans" font-size="10.00">GenomicDBImport</text>
<text text-anchor="middle" x="1235.5" y="-303" font-family="sans" font-size="10.00">chrom: CC1.8.Chr10</text>
</g>
<!-- 33&#45;&gt;22 -->
<g id="edge33" class="edge">
<title>33&#45;&gt;22</title>
<path fill="none" stroke="grey" stroke-width="2" d="M1230.56,-292.7C1228.33,-284.9 1225.65,-275.51 1223.17,-266.83"/>
<polygon fill="grey" stroke="grey" stroke-width="2" points="1226.5,-265.76 1220.39,-257.1 1219.77,-267.68 1226.5,-265.76"/>
</g>
<!-- 34 -->
<g id="node35" class="node">
<title>34</title>
<path fill="none" stroke="#56a2d8" stroke-width="2" d="M1411,-329C1411,-329 1322,-329 1322,-329 1316,-329 1310,-323 1310,-317 1310,-317 1310,-305 1310,-305 1310,-299 1316,-293 1322,-293 1322,-293 1411,-293 1411,-293 1417,-293 1423,-299 1423,-305 1423,-305 1423,-317 1423,-317 1423,-323 1417,-329 1411,-329"/>
<text text-anchor="middle" x="1366.5" y="-314" font-family="sans" font-size="10.00">GenomicDBImport</text>
<text text-anchor="middle" x="1366.5" y="-303" font-family="sans" font-size="10.00">chrom: CC1.8.Chr11</text>
</g>
<!-- 34&#45;&gt;23 -->
<g id="edge34" class="edge">
<title>34&#45;&gt;23</title>
<path fill="none" stroke="grey" stroke-width="2" d="M1361.31,-292.7C1358.97,-284.9 1356.15,-275.51 1353.55,-266.83"/>
<polygon fill="grey" stroke="grey" stroke-width="2" points="1356.86,-265.68 1350.63,-257.1 1350.15,-267.69 1356.86,-265.68"/>
</g>
<!-- 35 -->
<g id="node36" class="node">
<title>35</title>
<path fill="none" stroke="#d87d56" stroke-width="2" stroke-dasharray="5,2" d="M690,-401C690,-401 619,-401 619,-401 613,-401 607,-395 607,-389 607,-389 607,-377 607,-377 607,-371 613,-365 619,-365 619,-365 690,-365 690,-365 696,-365 702,-371 702,-377 702,-377 702,-389 702,-389 702,-395 696,-401 690,-401"/>
<text text-anchor="middle" x="654.5" y="-380.5" font-family="sans" font-size="10.00">HaplotypeCaller</text>
</g>
<!-- 35&#45;&gt;24 -->
<g id="edge35" class="edge">
<title>35&#45;&gt;24</title>
<path fill="none" stroke="grey" stroke-width="2" d="M606.74,-379.76C514.74,-374.92 306.54,-361.31 123.2,-329.16"/>
<polygon fill="grey" stroke="grey" stroke-width="2" points="123.56,-325.67 113.1,-327.36 122.34,-332.56 123.56,-325.67"/>
</g>
<!-- 35&#45;&gt;25 -->
<g id="edge37" class="edge">
<title>35&#45;&gt;25</title>
<path fill="none" stroke="grey" stroke-width="2" d="M606.85,-377.66C533.11,-370.52 386.81,-354.67 254.06,-329.18"/>
<polygon fill="grey" stroke="grey" stroke-width="2" points="254.61,-325.73 244.12,-327.25 253.27,-332.6 254.61,-325.73"/>
</g>
<!-- 35&#45;&gt;26 -->
<g id="edge39" class="edge">
<title>35&#45;&gt;26</title>
<path fill="none" stroke="grey" stroke-width="2" d="M606.82,-373.61C554.61,-364.21 468.21,-348.06 385.03,-329.29"/>
<polygon fill="grey" stroke="grey" stroke-width="2" points="385.7,-325.85 375.17,-327.04 384.14,-332.67 385.7,-325.85"/>
</g>
<!-- 35&#45;&gt;27 -->
<g id="edge41" class="edge">
<title>35&#45;&gt;27</title>
<path fill="none" stroke="grey" stroke-width="2" d="M606.95,-365.76C577.82,-355.82 540.27,-342.99 509.15,-332.37"/>
<polygon fill="grey" stroke="grey" stroke-width="2" points="509.88,-328.92 499.29,-329 507.62,-335.54 509.88,-328.92"/>
</g>
<!-- 35&#45;&gt;28 -->
<g id="edge43" class="edge">
<title>35&#45;&gt;28</title>
<path fill="none" stroke="grey" stroke-width="2" d="M636.21,-364.7C627.07,-356.05 615.86,-345.45 605.9,-336.03"/>
<polygon fill="grey" stroke="grey" stroke-width="2" points="608.25,-333.43 598.58,-329.1 603.44,-338.52 608.25,-333.43"/>
</g>
<!-- 35&#45;&gt;29 -->
<g id="edge45" class="edge">
<title>35&#45;&gt;29</title>
<path fill="none" stroke="grey" stroke-width="2" d="M668.59,-364.7C675.42,-356.3 683.76,-346.07 691.26,-336.86"/>
<polygon fill="grey" stroke="grey" stroke-width="2" points="693.97,-339.07 697.57,-329.1 688.54,-334.65 693.97,-339.07"/>
</g>
<!-- 35&#45;&gt;30 -->
<g id="edge47" class="edge">
<title>35&#45;&gt;30</title>
<path fill="none" stroke="grey" stroke-width="2" d="M700.49,-364.88C726.65,-355.14 759.59,-342.87 787.15,-332.61"/>
<polygon fill="grey" stroke="grey" stroke-width="2" points="788.51,-335.84 796.66,-329.07 786.07,-329.28 788.51,-335.84"/>
</g>
<!-- 35&#45;&gt;31 -->
<g id="edge49" class="edge">
<title>35&#45;&gt;31</title>
<path fill="none" stroke="grey" stroke-width="2" d="M702.06,-367.16C704.9,-366.39 707.73,-365.67 710.5,-365 794.38,-344.71 819.42,-348.05 907.01,-329.24"/>
<polygon fill="grey" stroke="grey" stroke-width="2" points="907.82,-332.64 916.84,-327.09 906.32,-325.8 907.82,-332.64"/>
</g>
<!-- 35&#45;&gt;32 -->
<g id="edge51" class="edge">
<title>35&#45;&gt;32</title>
<path fill="none" stroke="grey" stroke-width="2" d="M702,-366.92C704.87,-366.22 707.71,-365.57 710.5,-365 851.37,-336.17 892.99,-354.8 1037.75,-329.17"/>
<polygon fill="grey" stroke="grey" stroke-width="2" points="1038.67,-332.56 1047.89,-327.33 1037.43,-325.67 1038.67,-332.56"/>
</g>
<!-- 35&#45;&gt;33 -->
<g id="edge53" class="edge">
<title>35&#45;&gt;33</title>
<path fill="none" stroke="grey" stroke-width="2" d="M702.29,-366.75C705.05,-366.1 707.8,-365.51 710.5,-365 908.77,-327.61 966.43,-361.93 1168.85,-329.1"/>
<polygon fill="grey" stroke="grey" stroke-width="2" points="1169.62,-332.52 1178.91,-327.43 1168.47,-325.62 1169.62,-332.52"/>
</g>
<!-- 35&#45;&gt;34 -->
<g id="edge55" class="edge">
<title>35&#45;&gt;34</title>
<path fill="none" stroke="grey" stroke-width="2" d="M702.28,-366.69C705.05,-366.06 707.8,-365.49 710.5,-365 966.22,-319.05 1039.78,-369.18 1299.79,-329.08"/>
<polygon fill="grey" stroke="grey" stroke-width="2" points="1300.58,-332.5 1309.92,-327.49 1299.5,-325.59 1300.58,-332.5"/>
</g>
<!-- 36 -->
<g id="node37" class="node">
<title>36</title>
<path fill="none" stroke="#d87d56" stroke-width="2" stroke-dasharray="5,2" d="M803,-401C803,-401 732,-401 732,-401 726,-401 720,-395 720,-389 720,-389 720,-377 720,-377 720,-371 726,-365 732,-365 732,-365 803,-365 803,-365 809,-365 815,-371 815,-377 815,-377 815,-389 815,-389 815,-395 809,-401 803,-401"/>
<text text-anchor="middle" x="767.5" y="-380.5" font-family="sans" font-size="10.00">HaplotypeCaller</text>
</g>
<!-- 36&#45;&gt;24 -->
<g id="edge36" class="edge">
<title>36&#45;&gt;24</title>
<path fill="none" stroke="grey" stroke-width="2" d="M719.8,-366.91C716.67,-366.19 713.55,-365.54 710.5,-365 455.54,-319.8 382.33,-369.09 123.17,-329.08"/>
<polygon fill="grey" stroke="grey" stroke-width="2" points="123.5,-325.59 113.08,-327.49 122.42,-332.5 123.5,-325.59"/>
</g>
<!-- 36&#45;&gt;25 -->
<g id="edge38" class="edge">
<title>36&#45;&gt;25</title>
<path fill="none" stroke="grey" stroke-width="2" d="M719.79,-366.97C716.66,-366.24 713.55,-365.57 710.5,-365 513,-328.22 455.68,-361.85 254.11,-329.1"/>
<polygon fill="grey" stroke="grey" stroke-width="2" points="254.53,-325.62 244.09,-327.43 253.38,-332.52 254.53,-325.62"/>
</g>
<!-- 36&#45;&gt;26 -->
<g id="edge40" class="edge">
<title>36&#45;&gt;26</title>
<path fill="none" stroke="grey" stroke-width="2" d="M719.76,-367.08C716.64,-366.32 713.54,-365.61 710.5,-365 570.41,-336.64 529.12,-354.71 385.2,-329.16"/>
<polygon fill="grey" stroke="grey" stroke-width="2" points="385.58,-325.67 375.11,-327.33 384.32,-332.56 385.58,-325.67"/>
</g>
<!-- 36&#45;&gt;27 -->
<g id="edge42" class="edge">
<title>36&#45;&gt;27</title>
<path fill="none" stroke="grey" stroke-width="2" d="M719.71,-367.34C716.6,-366.51 713.51,-365.72 710.5,-365 627.49,-345.06 602.73,-347.97 516.16,-329.28"/>
<polygon fill="grey" stroke="grey" stroke-width="2" points="516.68,-325.81 506.16,-327.08 515.18,-332.65 516.68,-325.81"/>
</g>
<!-- 36&#45;&gt;28 -->
<g id="edge44" class="edge">
<title>36&#45;&gt;28</title>
<path fill="none" stroke="grey" stroke-width="2" d="M721.75,-364.88C695.74,-355.14 662.97,-342.87 635.55,-332.61"/>
<polygon fill="grey" stroke="grey" stroke-width="2" points="636.69,-329.3 626.1,-329.07 634.24,-335.85 636.69,-329.3"/>
</g>
<!-- 36&#45;&gt;29 -->
<g id="edge46" class="edge">
<title>36&#45;&gt;29</title>
<path fill="none" stroke="grey" stroke-width="2" d="M753.66,-364.7C747.01,-356.39 738.92,-346.28 731.61,-337.14"/>
<polygon fill="grey" stroke="grey" stroke-width="2" points="734.16,-334.73 725.18,-329.1 728.7,-339.1 734.16,-334.73"/>
</g>
<!-- 36&#45;&gt;30 -->
<g id="edge48" class="edge">
<title>36&#45;&gt;30</title>
<path fill="none" stroke="grey" stroke-width="2" d="M786.04,-364.7C795.3,-356.05 806.66,-345.45 816.76,-336.03"/>
<polygon fill="grey" stroke="grey" stroke-width="2" points="819.25,-338.49 824.17,-329.1 814.48,-333.37 819.25,-338.49"/>
</g>
<!-- 36&#45;&gt;31 -->
<g id="edge50" class="edge">
<title>36&#45;&gt;31</title>
<path fill="none" stroke="grey" stroke-width="2" d="M815.02,-365.85C844.42,-355.86 882.41,-342.95 913.82,-332.28"/>
<polygon fill="grey" stroke="grey" stroke-width="2" points="915,-335.57 923.35,-329.04 912.75,-328.95 915,-335.57"/>
</g>
<!-- 36&#45;&gt;32 -->
<g id="edge52" class="edge">
<title>36&#45;&gt;32</title>
<path fill="none" stroke="grey" stroke-width="2" d="M815.35,-373.62C867.76,-364.24 954.48,-348.09 1037.94,-329.29"/>
<polygon fill="grey" stroke="grey" stroke-width="2" points="1038.85,-332.67 1047.83,-327.05 1037.31,-325.85 1038.85,-332.67"/>
</g>
<!-- 36&#45;&gt;33 -->
<g id="edge54" class="edge">
<title>36&#45;&gt;33</title>
<path fill="none" stroke="grey" stroke-width="2" d="M815.27,-377.67C889.2,-370.54 1035.86,-354.71 1168.91,-329.19"/>
<polygon fill="grey" stroke="grey" stroke-width="2" points="1169.73,-332.6 1178.88,-327.25 1168.39,-325.72 1169.73,-332.6"/>
</g>
<!-- 36&#45;&gt;34 -->
<g id="edge56" class="edge">
<title>36&#45;&gt;34</title>
<path fill="none" stroke="grey" stroke-width="2" d="M815.35,-379.77C907.52,-374.94 1116.11,-361.35 1299.78,-329.16"/>
<polygon fill="grey" stroke="grey" stroke-width="2" points="1300.66,-332.56 1309.9,-327.36 1299.44,-325.67 1300.66,-332.56"/>
</g>
<!-- 37 -->
<g id="node38" class="node">
<title>37</title>
<path fill="none" stroke="#59d856" stroke-width="2" stroke-dasharray="5,2" d="M687.5,-473C687.5,-473 619.5,-473 619.5,-473 613.5,-473 607.5,-467 607.5,-461 607.5,-461 607.5,-449 607.5,-449 607.5,-443 613.5,-437 619.5,-437 619.5,-437 687.5,-437 687.5,-437 693.5,-437 699.5,-443 699.5,-449 699.5,-449 699.5,-461 699.5,-461 699.5,-467 693.5,-473 687.5,-473"/>
<text text-anchor="middle" x="653.5" y="-452.5" font-family="sans" font-size="10.00">MarkDuplicates</text>
</g>
<!-- 37&#45;&gt;35 -->
<g id="edge57" class="edge">
<title>37&#45;&gt;35</title>
<path fill="none" stroke="grey" stroke-width="2" d="M653.75,-436.7C653.86,-428.98 653.99,-419.71 654.11,-411.11"/>
<polygon fill="grey" stroke="grey" stroke-width="2" points="657.61,-411.15 654.26,-401.1 650.61,-411.05 657.61,-411.15"/>
</g>
<!-- 38 -->
<g id="node39" class="node">
<title>38</title>
<path fill="none" stroke="#59d856" stroke-width="2" stroke-dasharray="5,2" d="M801.5,-473C801.5,-473 733.5,-473 733.5,-473 727.5,-473 721.5,-467 721.5,-461 721.5,-461 721.5,-449 721.5,-449 721.5,-443 727.5,-437 733.5,-437 733.5,-437 801.5,-437 801.5,-437 807.5,-437 813.5,-443 813.5,-449 813.5,-449 813.5,-461 813.5,-461 813.5,-467 807.5,-473 801.5,-473"/>
<text text-anchor="middle" x="767.5" y="-452.5" font-family="sans" font-size="10.00">MarkDuplicates</text>
</g>
<!-- 38&#45;&gt;36 -->
<g id="edge58" class="edge">
<title>38&#45;&gt;36</title>
<path fill="none" stroke="grey" stroke-width="2" d="M767.5,-436.7C767.5,-428.98 767.5,-419.71 767.5,-411.11"/>
<polygon fill="grey" stroke="grey" stroke-width="2" points="771,-411.1 767.5,-401.1 764,-411.1 771,-411.1"/>
</g>
<!-- 39 -->
<g id="node40" class="node">
<title>39</title>
<path fill="none" stroke="#78d856" stroke-width="2" stroke-dasharray="5,2" d="M678.5,-545C678.5,-545 622.5,-545 622.5,-545 616.5,-545 610.5,-539 610.5,-533 610.5,-533 610.5,-521 610.5,-521 610.5,-515 616.5,-509 622.5,-509 622.5,-509 678.5,-509 678.5,-509 684.5,-509 690.5,-515 690.5,-521 690.5,-521 690.5,-533 690.5,-533 690.5,-539 684.5,-545 678.5,-545"/>
<text text-anchor="middle" x="650.5" y="-524.5" font-family="sans" font-size="10.00">sam_to_bam</text>
</g>
<!-- 39&#45;&gt;37 -->
<g id="edge59" class="edge">
<title>39&#45;&gt;37</title>
<path fill="none" stroke="grey" stroke-width="2" d="M651.24,-508.7C651.57,-500.98 651.97,-491.71 652.34,-483.11"/>
<polygon fill="grey" stroke="grey" stroke-width="2" points="655.84,-483.25 652.77,-473.1 648.84,-482.95 655.84,-483.25"/>
</g>
<!-- 40 -->
<g id="node41" class="node">
<title>40</title>
<path fill="none" stroke="#78d856" stroke-width="2" stroke-dasharray="5,2" d="M795.5,-545C795.5,-545 739.5,-545 739.5,-545 733.5,-545 727.5,-539 727.5,-533 727.5,-533 727.5,-521 727.5,-521 727.5,-515 733.5,-509 739.5,-509 739.5,-509 795.5,-509 795.5,-509 801.5,-509 807.5,-515 807.5,-521 807.5,-521 807.5,-533 807.5,-533 807.5,-539 801.5,-545 795.5,-545"/>
<text text-anchor="middle" x="767.5" y="-524.5" font-family="sans" font-size="10.00">sam_to_bam</text>
</g>
<!-- 40&#45;&gt;38 -->
<g id="edge60" class="edge">
<title>40&#45;&gt;38</title>
<path fill="none" stroke="grey" stroke-width="2" d="M767.5,-508.7C767.5,-500.98 767.5,-491.71 767.5,-483.11"/>
<polygon fill="grey" stroke="grey" stroke-width="2" points="771,-483.1 767.5,-473.1 764,-483.1 771,-483.1"/>
</g>
<!-- 41 -->
<g id="node42" class="node">
<title>41</title>
<path fill="none" stroke="#d85656" stroke-width="2" stroke-dasharray="5,2" d="M688,-617C688,-617 611,-617 611,-617 605,-617 599,-611 599,-605 599,-605 599,-593 599,-593 599,-587 605,-581 611,-581 611,-581 688,-581 688,-581 694,-581 700,-587 700,-593 700,-593 700,-605 700,-605 700,-611 694,-617 688,-617"/>
<text text-anchor="middle" x="649.5" y="-602" font-family="sans" font-size="10.00">bwa_mem</text>
<text text-anchor="middle" x="649.5" y="-591" font-family="sans" font-size="10.00">sample: sample1</text>
</g>
<!-- 41&#45;&gt;39 -->
<g id="edge61" class="edge">
<title>41&#45;&gt;39</title>
<path fill="none" stroke="grey" stroke-width="2" d="M649.75,-580.7C649.86,-572.98 649.99,-563.71 650.11,-555.11"/>
<polygon fill="grey" stroke="grey" stroke-width="2" points="653.61,-555.15 650.26,-545.1 646.61,-555.05 653.61,-555.15"/>
</g>
<!-- 42 -->
<g id="node43" class="node">
<title>42</title>
<path fill="none" stroke="#d85656" stroke-width="2" stroke-dasharray="5,2" d="M807,-617C807,-617 730,-617 730,-617 724,-617 718,-611 718,-605 718,-605 718,-593 718,-593 718,-587 724,-581 730,-581 730,-581 807,-581 807,-581 813,-581 819,-587 819,-593 819,-593 819,-605 819,-605 819,-611 813,-617 807,-617"/>
<text text-anchor="middle" x="768.5" y="-602" font-family="sans" font-size="10.00">bwa_mem</text>
<text text-anchor="middle" x="768.5" y="-591" font-family="sans" font-size="10.00">sample: sample2</text>
</g>
<!-- 42&#45;&gt;40 -->
<g id="edge62" class="edge">
<title>42&#45;&gt;40</title>
<path fill="none" stroke="grey" stroke-width="2" d="M768.25,-580.7C768.14,-572.98 768.01,-563.71 767.89,-555.11"/>
<polygon fill="grey" stroke="grey" stroke-width="2" points="771.39,-555.05 767.74,-545.1 764.39,-555.15 771.39,-555.05"/>
</g>
<!-- 43 -->
<g id="node44" class="node">
<title>43</title>
<path fill="none" stroke="#9fd856" stroke-width="2" stroke-dasharray="5,2" d="M727.5,-689C727.5,-689 689.5,-689 689.5,-689 683.5,-689 677.5,-683 677.5,-677 677.5,-677 677.5,-665 677.5,-665 677.5,-659 683.5,-653 689.5,-653 689.5,-653 727.5,-653 727.5,-653 733.5,-653 739.5,-659 739.5,-665 739.5,-665 739.5,-677 739.5,-677 739.5,-683 733.5,-689 727.5,-689"/>
<text text-anchor="middle" x="708.5" y="-668.5" font-family="sans" font-size="10.00">index_ref</text>
</g>
<!-- 43&#45;&gt;41 -->
<g id="edge63" class="edge">
<title>43&#45;&gt;41</title>
<path fill="none" stroke="grey" stroke-width="2" d="M693.92,-652.7C686.84,-644.3 678.22,-634.07 670.45,-624.86"/>
<polygon fill="grey" stroke="grey" stroke-width="2" points="673.04,-622.49 663.92,-617.1 667.69,-627.01 673.04,-622.49"/>
</g>
<!-- 43&#45;&gt;42 -->
<g id="edge64" class="edge">
<title>43&#45;&gt;42</title>
<path fill="none" stroke="grey" stroke-width="2" d="M723.33,-652.7C730.52,-644.3 739.3,-634.07 747.19,-624.86"/>
<polygon fill="grey" stroke="grey" stroke-width="2" points="749.99,-626.97 753.84,-617.1 744.67,-622.42 749.99,-626.97"/>
</g>
</g>
</svg>
